G04 #@! TF.FileFunction,Copper,L2,Bot,Signal*
%FSLAX46Y46*%
G04 Gerber Fmt 4.6, Leading zero omitted, Abs format (unit mm)*
G04 Created by KiCad (PCBNEW 4.0.5+dfsg1-4) date Sat Sep  9 17:28:41 2017*
%MOMM*%
%LPD*%
G01*
G04 APERTURE LIST*
%ADD10C,0.100000*%
%ADD11C,0.381000*%
%ADD12R,1.700000X1.700000*%
%ADD13O,1.700000X1.700000*%
%ADD14R,1.250000X1.500000*%
%ADD15R,1.000000X1.000000*%
%ADD16O,1.000000X1.000000*%
%ADD17R,2.900000X0.800000*%
%ADD18R,3.200000X0.800000*%
%ADD19C,0.600000*%
%ADD20C,0.250000*%
%ADD21C,0.254000*%
G04 APERTURE END LIST*
D10*
D11*
X125404880Y-109758480D03*
X126222760Y-109758480D03*
X127863600Y-109783880D03*
X127045720Y-109783880D03*
X130286760Y-109804200D03*
X131104640Y-109804200D03*
X129463800Y-109778800D03*
X128645920Y-109778800D03*
X145500000Y-100400000D03*
X155500000Y-111000000D03*
X156300000Y-111000000D03*
X157100000Y-111000000D03*
X157900000Y-111000000D03*
X171100000Y-104200000D03*
X171900000Y-104200000D03*
X169500000Y-104200000D03*
X170300000Y-104200000D03*
X160400000Y-88900000D03*
X161200000Y-88900000D03*
X162000000Y-88900000D03*
X162800000Y-88900000D03*
X169100000Y-101100000D03*
X169900000Y-101100000D03*
X163900000Y-99100000D03*
X164700000Y-99100000D03*
X163900000Y-97100000D03*
X164700000Y-97100000D03*
X149600000Y-103900000D03*
X149600000Y-103100000D03*
X149600000Y-102300000D03*
D12*
X138400000Y-86800000D03*
D13*
X138400000Y-84260000D03*
X140940000Y-86800000D03*
X140940000Y-84260000D03*
X143480000Y-86800000D03*
X143480000Y-84260000D03*
X146020000Y-86800000D03*
X146020000Y-84260000D03*
X148560000Y-86800000D03*
X148560000Y-84260000D03*
X151100000Y-86800000D03*
X151100000Y-84260000D03*
X153640000Y-86800000D03*
X153640000Y-84260000D03*
X156180000Y-86800000D03*
X156180000Y-84260000D03*
D14*
X132983720Y-105478320D03*
X132983720Y-107978320D03*
X135219720Y-105450320D03*
X135219720Y-107950320D03*
X143032480Y-101020560D03*
X143032480Y-103520560D03*
D11*
X153500000Y-100600000D03*
X153500000Y-99800000D03*
D15*
X143700000Y-105700000D03*
D16*
X144970000Y-105700000D03*
X143700000Y-106970000D03*
X144970000Y-106970000D03*
X143700000Y-108240000D03*
X144970000Y-108240000D03*
X143700000Y-109510000D03*
X144970000Y-109510000D03*
X143700000Y-110780000D03*
X144970000Y-110780000D03*
D12*
X139600000Y-110700000D03*
D13*
X139600000Y-108160000D03*
X139600000Y-105620000D03*
X139600000Y-103080000D03*
X139600000Y-100540000D03*
X139600000Y-98000000D03*
X139600000Y-95460000D03*
X139600000Y-92920000D03*
D12*
X178500000Y-88300000D03*
D13*
X181040000Y-88300000D03*
X178500000Y-90840000D03*
X181040000Y-90840000D03*
X178500000Y-93380000D03*
X181040000Y-93380000D03*
X178500000Y-95920000D03*
X181040000Y-95920000D03*
X178500000Y-98460000D03*
X181040000Y-98460000D03*
X178500000Y-101000000D03*
X181040000Y-101000000D03*
X178500000Y-103540000D03*
X181040000Y-103540000D03*
X178500000Y-106080000D03*
X181040000Y-106080000D03*
X178500000Y-108620000D03*
X181040000Y-108620000D03*
X178500000Y-111160000D03*
X181040000Y-111160000D03*
D12*
X150300000Y-110300000D03*
D13*
X152840000Y-110300000D03*
D17*
X116936520Y-112069240D03*
X116936520Y-105469240D03*
X116936520Y-104369240D03*
X116936520Y-110969240D03*
X116936520Y-106569240D03*
D18*
X116786520Y-109869240D03*
D17*
X116936520Y-108769240D03*
D18*
X116786520Y-107669240D03*
D19*
X161600000Y-102100000D03*
X161600000Y-100100000D03*
X161600000Y-98100000D03*
X161600000Y-96100000D03*
X161600000Y-94100000D03*
X161600000Y-92100000D03*
X161700000Y-90100000D03*
X136575800Y-104937560D03*
X142265400Y-99664520D03*
X146502120Y-102809040D03*
X145648680Y-103068120D03*
X146304000Y-101727000D03*
X147050760Y-108234480D03*
X146974560Y-100949760D03*
X148254720Y-106969560D03*
X156200000Y-98100000D03*
X156200000Y-97100000D03*
X156200000Y-95800000D03*
X156400000Y-94600000D03*
X156700000Y-93100000D03*
X157000000Y-91800000D03*
X157200000Y-90400000D03*
D20*
X116921280Y-104369240D02*
X123260480Y-104369240D01*
X138479080Y-92920000D02*
X139600000Y-92920000D01*
X137215880Y-94183200D02*
X138479080Y-92920000D01*
X137215880Y-102397560D02*
X137215880Y-94183200D01*
X136707880Y-102905560D02*
X137215880Y-102397560D01*
X124724160Y-102905560D02*
X136707880Y-102905560D01*
X123260480Y-104369240D02*
X124724160Y-102905560D01*
X116921280Y-105469240D02*
X123206960Y-105469240D01*
X138123480Y-95460000D02*
X139600000Y-95460000D01*
X137688320Y-95895160D02*
X138123480Y-95460000D01*
X137688320Y-102671880D02*
X137688320Y-95895160D01*
X136895840Y-103464360D02*
X137688320Y-102671880D01*
X125211840Y-103464360D02*
X136895840Y-103464360D01*
X123206960Y-105469240D02*
X125211840Y-103464360D01*
X116771280Y-106569240D02*
X123143280Y-106569240D01*
X138621320Y-98000000D02*
X139600000Y-98000000D01*
X138138322Y-98482998D02*
X138621320Y-98000000D01*
X138138322Y-103065158D02*
X138138322Y-98482998D01*
X137154920Y-104048560D02*
X138138322Y-103065158D01*
X125663960Y-104048560D02*
X137154920Y-104048560D01*
X123143280Y-106569240D02*
X125663960Y-104048560D01*
X143700000Y-108240000D02*
X142011840Y-108240000D01*
X136641840Y-106954320D02*
X136334500Y-106646980D01*
X140726160Y-106954320D02*
X136641840Y-106954320D01*
X142011840Y-108240000D02*
X140726160Y-106954320D01*
X139600000Y-103080000D02*
X139600000Y-103298320D01*
X116771280Y-108769240D02*
X123346120Y-108769240D01*
X138328400Y-104351600D02*
X139600000Y-103080000D01*
X138328400Y-104653080D02*
X138328400Y-104351600D01*
X136260840Y-106720640D02*
X136334500Y-106646980D01*
X136334500Y-106646980D02*
X138328400Y-104653080D01*
X131724400Y-106720640D02*
X136260840Y-106720640D01*
X130586480Y-105582720D02*
X131724400Y-106720640D01*
X126532640Y-105582720D02*
X130586480Y-105582720D01*
X123346120Y-108769240D02*
X126532640Y-105582720D01*
X139600000Y-108160000D02*
X140209720Y-108160000D01*
X140209720Y-108160000D02*
X141549120Y-109499400D01*
X142143920Y-110780000D02*
X143700000Y-110780000D01*
X141549120Y-110185200D02*
X142143920Y-110780000D01*
X141549120Y-109499400D02*
X141549120Y-110185200D01*
X116921280Y-110969240D02*
X131869240Y-110969240D01*
X138640000Y-108160000D02*
X139600000Y-108160000D01*
X137900000Y-108900000D02*
X138640000Y-108160000D01*
X137900000Y-111000000D02*
X137900000Y-108900000D01*
X137500000Y-111400000D02*
X137900000Y-111000000D01*
X132300000Y-111400000D02*
X137500000Y-111400000D01*
X131869240Y-110969240D02*
X132300000Y-111400000D01*
X143700000Y-110780000D02*
X143280000Y-110780000D01*
X116921280Y-112069240D02*
X138230760Y-112069240D01*
X138230760Y-112069240D02*
X139600000Y-110700000D01*
X179780000Y-109900000D02*
X181040000Y-111160000D01*
X177300000Y-109900000D02*
X179780000Y-109900000D01*
X175400000Y-108000000D02*
X177300000Y-109900000D01*
X175400000Y-105800000D02*
X175400000Y-108000000D01*
X171700000Y-102100000D02*
X175400000Y-105800000D01*
X161600000Y-102100000D02*
X171700000Y-102100000D01*
X179820000Y-107400000D02*
X181040000Y-108620000D01*
X177300000Y-107400000D02*
X179820000Y-107400000D01*
X176100000Y-106200000D02*
X177300000Y-107400000D01*
X176100000Y-104100000D02*
X176100000Y-106200000D01*
X172100000Y-100100000D02*
X176100000Y-104100000D01*
X161600000Y-100100000D02*
X172100000Y-100100000D01*
X179760000Y-104800000D02*
X181040000Y-106080000D01*
X177600000Y-104800000D02*
X179760000Y-104800000D01*
X176900000Y-104100000D02*
X177600000Y-104800000D01*
X176900000Y-102800000D02*
X176900000Y-104100000D01*
X172200000Y-98100000D02*
X176900000Y-102800000D01*
X161600000Y-98100000D02*
X172200000Y-98100000D01*
X179800000Y-102300000D02*
X181040000Y-103540000D01*
X177300000Y-102300000D02*
X179800000Y-102300000D01*
X174100000Y-99100000D02*
X177300000Y-102300000D01*
X174100000Y-96700000D02*
X174100000Y-99100000D01*
X173500000Y-96100000D02*
X174100000Y-96700000D01*
X161600000Y-96100000D02*
X173500000Y-96100000D01*
X179740000Y-99700000D02*
X181040000Y-101000000D01*
X177400000Y-99700000D02*
X179740000Y-99700000D01*
X175500000Y-97800000D02*
X177400000Y-99700000D01*
X175500000Y-94700000D02*
X175500000Y-97800000D01*
X174800000Y-94000000D02*
X175500000Y-94700000D01*
X161700000Y-94000000D02*
X174800000Y-94000000D01*
X161600000Y-94100000D02*
X161700000Y-94000000D01*
X179780000Y-97200000D02*
X181040000Y-98460000D01*
X177400000Y-97200000D02*
X179780000Y-97200000D01*
X176300000Y-96100000D02*
X177400000Y-97200000D01*
X176300000Y-92600000D02*
X176300000Y-96100000D01*
X175800000Y-92100000D02*
X176300000Y-92600000D01*
X161600000Y-92100000D02*
X175800000Y-92100000D01*
X179820000Y-94700000D02*
X181040000Y-95920000D01*
X177500000Y-94700000D02*
X179820000Y-94700000D01*
X177000000Y-94200000D02*
X177500000Y-94700000D01*
X177000000Y-91500000D02*
X177000000Y-94200000D01*
X175600000Y-90100000D02*
X177000000Y-91500000D01*
X161700000Y-90100000D02*
X175600000Y-90100000D01*
X132983720Y-105478320D02*
X135191720Y-105478320D01*
X135191720Y-105478320D02*
X135219720Y-105450320D01*
X132983720Y-105478320D02*
X132229600Y-105478320D01*
X132229600Y-105478320D02*
X131688840Y-104937560D01*
X143700000Y-105700000D02*
X143068480Y-105700000D01*
X141884400Y-104515920D02*
X141884400Y-101050000D01*
X143068480Y-105700000D02*
X141884400Y-104515920D01*
X139600000Y-100540000D02*
X140804080Y-100540000D01*
X141314080Y-101050000D02*
X141884400Y-101050000D01*
X141884400Y-101050000D02*
X142600000Y-101050000D01*
X140804080Y-100540000D02*
X141314080Y-101050000D01*
X116921280Y-107669240D02*
X123277720Y-107669240D01*
X126009400Y-104937560D02*
X131688840Y-104937560D01*
X131688840Y-104937560D02*
X136575800Y-104937560D01*
X123277720Y-107669240D02*
X126009400Y-104937560D01*
X142600000Y-101050000D02*
X142600000Y-100000000D01*
X142600000Y-100000000D02*
X142265400Y-99664520D01*
X145800640Y-110780000D02*
X144970000Y-110780000D01*
X146349720Y-110230920D02*
X145800640Y-110780000D01*
X146349720Y-102961440D02*
X146349720Y-110230920D01*
X146502120Y-102809040D02*
X146349720Y-102961440D01*
X144970000Y-109510000D02*
X145325238Y-109510000D01*
X145325238Y-109510000D02*
X145862040Y-108973198D01*
X145862040Y-108973198D02*
X145862040Y-103281480D01*
X145862040Y-103281480D02*
X145648680Y-103068120D01*
X146319240Y-101711760D02*
X146304000Y-101727000D01*
X146669760Y-101711760D02*
X146319240Y-101711760D01*
X147340320Y-102382320D02*
X146669760Y-101711760D01*
X147340320Y-107944920D02*
X147340320Y-102382320D01*
X147050760Y-108234480D02*
X147340320Y-107944920D01*
X147629880Y-101605080D02*
X146974560Y-100949760D01*
X147629880Y-101894640D02*
X147629880Y-101605080D01*
X148254720Y-102519480D02*
X147629880Y-101894640D01*
X148254720Y-106969560D02*
X148254720Y-102519480D01*
X139700000Y-85560000D02*
X138400000Y-84260000D01*
X139700000Y-87900000D02*
X139700000Y-85560000D01*
X143800000Y-92000000D02*
X139700000Y-87900000D01*
X150100000Y-92000000D02*
X143800000Y-92000000D01*
X156200000Y-98100000D02*
X150100000Y-92000000D01*
X142200000Y-85520000D02*
X140940000Y-84260000D01*
X142200000Y-87900000D02*
X142200000Y-85520000D01*
X145700000Y-91400000D02*
X142200000Y-87900000D01*
X150500000Y-91400000D02*
X145700000Y-91400000D01*
X156200000Y-97100000D02*
X150500000Y-91400000D01*
X144700000Y-85480000D02*
X143480000Y-84260000D01*
X144700000Y-88000000D02*
X144700000Y-85480000D01*
X147300000Y-90600000D02*
X144700000Y-88000000D01*
X151000000Y-90600000D02*
X147300000Y-90600000D01*
X156200000Y-95800000D02*
X151000000Y-90600000D01*
X147300000Y-85540000D02*
X146020000Y-84260000D01*
X147300000Y-87700000D02*
X147300000Y-85540000D01*
X149200000Y-89600000D02*
X147300000Y-87700000D01*
X151400000Y-89600000D02*
X149200000Y-89600000D01*
X156400000Y-94600000D02*
X151400000Y-89600000D01*
X149800000Y-85500000D02*
X148560000Y-84260000D01*
X149800000Y-88000000D02*
X149800000Y-85500000D01*
X150600000Y-88800000D02*
X149800000Y-88000000D01*
X152400000Y-88800000D02*
X150600000Y-88800000D01*
X156700000Y-93100000D02*
X152400000Y-88800000D01*
X152300000Y-85460000D02*
X151100000Y-84260000D01*
X152300000Y-87600000D02*
X152300000Y-85460000D01*
X153200000Y-88500000D02*
X152300000Y-87600000D01*
X153700000Y-88500000D02*
X153200000Y-88500000D01*
X157000000Y-91800000D02*
X153700000Y-88500000D01*
X154880000Y-85500000D02*
X153640000Y-84260000D01*
X157400000Y-85500000D02*
X154880000Y-85500000D01*
X157700000Y-85800000D02*
X157400000Y-85500000D01*
X157700000Y-89900000D02*
X157700000Y-85800000D01*
X157200000Y-90400000D02*
X157700000Y-89900000D01*
D21*
G36*
X143352399Y-92447596D02*
X143352401Y-92447599D01*
X143557761Y-92584816D01*
X143597952Y-92592810D01*
X143800000Y-92633001D01*
X143800005Y-92633000D01*
X149837802Y-92633000D01*
X155391923Y-98187121D01*
X155391860Y-98260016D01*
X155514611Y-98557097D01*
X155741707Y-98784590D01*
X156038574Y-98907860D01*
X156360016Y-98908140D01*
X156657097Y-98785389D01*
X156884590Y-98558293D01*
X157007860Y-98261426D01*
X157008140Y-97939984D01*
X156885389Y-97642903D01*
X156842685Y-97600125D01*
X156884590Y-97558293D01*
X157007860Y-97261426D01*
X157008140Y-96939984D01*
X156885389Y-96642903D01*
X156692685Y-96449863D01*
X156884590Y-96258293D01*
X157007860Y-95961426D01*
X157008140Y-95639984D01*
X156885389Y-95342903D01*
X156836479Y-95293908D01*
X156857097Y-95285389D01*
X157084590Y-95058293D01*
X157207860Y-94761426D01*
X157208140Y-94439984D01*
X157085389Y-94142903D01*
X156858293Y-93915410D01*
X156840744Y-93908123D01*
X156860016Y-93908140D01*
X157157097Y-93785389D01*
X157384590Y-93558293D01*
X157507860Y-93261426D01*
X157508140Y-92939984D01*
X157385389Y-92642903D01*
X157295007Y-92552363D01*
X157457097Y-92485389D01*
X157684590Y-92258293D01*
X157807860Y-91961426D01*
X157808140Y-91639984D01*
X157685389Y-91342903D01*
X157495131Y-91152312D01*
X157657097Y-91085389D01*
X157884590Y-90858293D01*
X158007860Y-90561426D01*
X158007925Y-90487273D01*
X158147596Y-90347601D01*
X158147599Y-90347599D01*
X158284816Y-90142239D01*
X158310089Y-90015184D01*
X158333001Y-89900000D01*
X158333000Y-89899995D01*
X158333000Y-88527000D01*
X177132048Y-88527000D01*
X177132048Y-89150000D01*
X177167470Y-89338253D01*
X177278728Y-89511153D01*
X177448488Y-89627145D01*
X177650000Y-89667952D01*
X177830121Y-89667952D01*
X177513144Y-89879749D01*
X177218767Y-90320316D01*
X177135272Y-90740074D01*
X176047599Y-89652401D01*
X175842239Y-89515184D01*
X175600000Y-89466999D01*
X175599995Y-89467000D01*
X162209793Y-89467000D01*
X162158293Y-89415410D01*
X161861426Y-89292140D01*
X161539984Y-89291860D01*
X161242903Y-89414611D01*
X161015410Y-89641707D01*
X160892140Y-89938574D01*
X160891860Y-90260016D01*
X161014611Y-90557097D01*
X161241707Y-90784590D01*
X161538574Y-90907860D01*
X161860016Y-90908140D01*
X162157097Y-90785389D01*
X162209578Y-90733000D01*
X175337802Y-90733000D01*
X176367000Y-91762198D01*
X176367000Y-91771802D01*
X176247599Y-91652401D01*
X176042239Y-91515184D01*
X175800000Y-91466999D01*
X175799995Y-91467000D01*
X162109793Y-91467000D01*
X162058293Y-91415410D01*
X161761426Y-91292140D01*
X161439984Y-91291860D01*
X161142903Y-91414611D01*
X160915410Y-91641707D01*
X160792140Y-91938574D01*
X160791860Y-92260016D01*
X160914611Y-92557097D01*
X161141707Y-92784590D01*
X161438574Y-92907860D01*
X161760016Y-92908140D01*
X162057097Y-92785389D01*
X162109578Y-92733000D01*
X175537802Y-92733000D01*
X175667000Y-92862197D01*
X175667000Y-93971803D01*
X175247599Y-93552401D01*
X175042239Y-93415184D01*
X174800000Y-93366999D01*
X174799995Y-93367000D01*
X161941709Y-93367000D01*
X161761426Y-93292140D01*
X161439984Y-93291860D01*
X161142903Y-93414611D01*
X160915410Y-93641707D01*
X160792140Y-93938574D01*
X160791860Y-94260016D01*
X160914611Y-94557097D01*
X161141707Y-94784590D01*
X161438574Y-94907860D01*
X161760016Y-94908140D01*
X162057097Y-94785389D01*
X162209752Y-94633000D01*
X174537802Y-94633000D01*
X174867000Y-94962197D01*
X174867000Y-97799995D01*
X174866999Y-97800000D01*
X174915184Y-98042239D01*
X175052401Y-98247599D01*
X176952399Y-100147596D01*
X176952401Y-100147599D01*
X177157761Y-100284816D01*
X177197952Y-100292810D01*
X177326914Y-100318463D01*
X177218767Y-100480316D01*
X177115395Y-101000000D01*
X177170071Y-101274874D01*
X174733000Y-98837802D01*
X174733000Y-96700000D01*
X174684816Y-96457761D01*
X174547599Y-96252401D01*
X174547596Y-96252399D01*
X173947599Y-95652401D01*
X173742239Y-95515184D01*
X173500000Y-95466999D01*
X173499995Y-95467000D01*
X162109793Y-95467000D01*
X162058293Y-95415410D01*
X161761426Y-95292140D01*
X161439984Y-95291860D01*
X161142903Y-95414611D01*
X160915410Y-95641707D01*
X160792140Y-95938574D01*
X160791860Y-96260016D01*
X160914611Y-96557097D01*
X161141707Y-96784590D01*
X161438574Y-96907860D01*
X161760016Y-96908140D01*
X162057097Y-96785389D01*
X162109578Y-96733000D01*
X173237802Y-96733000D01*
X173467000Y-96962197D01*
X173467000Y-98471802D01*
X172647599Y-97652401D01*
X172442239Y-97515184D01*
X172200000Y-97466999D01*
X172199995Y-97467000D01*
X162109793Y-97467000D01*
X162058293Y-97415410D01*
X161761426Y-97292140D01*
X161439984Y-97291860D01*
X161142903Y-97414611D01*
X160915410Y-97641707D01*
X160792140Y-97938574D01*
X160791860Y-98260016D01*
X160914611Y-98557097D01*
X161141707Y-98784590D01*
X161438574Y-98907860D01*
X161760016Y-98908140D01*
X162057097Y-98785389D01*
X162109578Y-98733000D01*
X171937802Y-98733000D01*
X176267000Y-103062197D01*
X176267000Y-103371803D01*
X172547599Y-99652401D01*
X172342239Y-99515184D01*
X172100000Y-99466999D01*
X172099995Y-99467000D01*
X162109793Y-99467000D01*
X162058293Y-99415410D01*
X161761426Y-99292140D01*
X161439984Y-99291860D01*
X161142903Y-99414611D01*
X160915410Y-99641707D01*
X160792140Y-99938574D01*
X160791860Y-100260016D01*
X160914611Y-100557097D01*
X161141707Y-100784590D01*
X161438574Y-100907860D01*
X161760016Y-100908140D01*
X162057097Y-100785389D01*
X162109578Y-100733000D01*
X171837802Y-100733000D01*
X175467000Y-104362197D01*
X175467000Y-104971803D01*
X172147599Y-101652401D01*
X171942239Y-101515184D01*
X171700000Y-101466999D01*
X171699995Y-101467000D01*
X162109793Y-101467000D01*
X162058293Y-101415410D01*
X161761426Y-101292140D01*
X161439984Y-101291860D01*
X161142903Y-101414611D01*
X160915410Y-101641707D01*
X160792140Y-101938574D01*
X160791860Y-102260016D01*
X160914611Y-102557097D01*
X161141707Y-102784590D01*
X161438574Y-102907860D01*
X161760016Y-102908140D01*
X162057097Y-102785389D01*
X162109578Y-102733000D01*
X171437802Y-102733000D01*
X174767000Y-106062197D01*
X174767000Y-107999995D01*
X174766999Y-108000000D01*
X174815184Y-108242239D01*
X174952401Y-108447599D01*
X176852399Y-110347596D01*
X176852401Y-110347599D01*
X177057761Y-110484816D01*
X177097952Y-110492810D01*
X177291590Y-110531328D01*
X177218767Y-110640316D01*
X177115395Y-111160000D01*
X177218767Y-111679684D01*
X177513144Y-112120251D01*
X177953711Y-112414628D01*
X178473395Y-112518000D01*
X178526605Y-112518000D01*
X179046289Y-112414628D01*
X179486856Y-112120251D01*
X179770000Y-111696495D01*
X180053144Y-112120251D01*
X180493711Y-112414628D01*
X181013395Y-112518000D01*
X181066605Y-112518000D01*
X181586289Y-112414628D01*
X182026856Y-112120251D01*
X182321233Y-111679684D01*
X182424605Y-111160000D01*
X182321233Y-110640316D01*
X182026856Y-110199749D01*
X181586289Y-109905372D01*
X181509009Y-109890000D01*
X181586289Y-109874628D01*
X182026856Y-109580251D01*
X182321233Y-109139684D01*
X182424605Y-108620000D01*
X182321233Y-108100316D01*
X182026856Y-107659749D01*
X181586289Y-107365372D01*
X181509009Y-107350000D01*
X181586289Y-107334628D01*
X182026856Y-107040251D01*
X182321233Y-106599684D01*
X182424605Y-106080000D01*
X182321233Y-105560316D01*
X182026856Y-105119749D01*
X181586289Y-104825372D01*
X181509009Y-104810000D01*
X181586289Y-104794628D01*
X182026856Y-104500251D01*
X182321233Y-104059684D01*
X182424605Y-103540000D01*
X182321233Y-103020316D01*
X182026856Y-102579749D01*
X181586289Y-102285372D01*
X181509009Y-102270000D01*
X181586289Y-102254628D01*
X182026856Y-101960251D01*
X182321233Y-101519684D01*
X182424605Y-101000000D01*
X182321233Y-100480316D01*
X182026856Y-100039749D01*
X181586289Y-99745372D01*
X181509009Y-99730000D01*
X181586289Y-99714628D01*
X182026856Y-99420251D01*
X182321233Y-98979684D01*
X182424605Y-98460000D01*
X182321233Y-97940316D01*
X182026856Y-97499749D01*
X181586289Y-97205372D01*
X181509009Y-97190000D01*
X181586289Y-97174628D01*
X182026856Y-96880251D01*
X182321233Y-96439684D01*
X182424605Y-95920000D01*
X182321233Y-95400316D01*
X182026856Y-94959749D01*
X181586289Y-94665372D01*
X181509009Y-94650000D01*
X181586289Y-94634628D01*
X182026856Y-94340251D01*
X182321233Y-93899684D01*
X182424605Y-93380000D01*
X182321233Y-92860316D01*
X182026856Y-92419749D01*
X181586289Y-92125372D01*
X181509009Y-92110000D01*
X181586289Y-92094628D01*
X182026856Y-91800251D01*
X182321233Y-91359684D01*
X182424605Y-90840000D01*
X182321233Y-90320316D01*
X182026856Y-89879749D01*
X181586289Y-89585372D01*
X181509009Y-89570000D01*
X181586289Y-89554628D01*
X182026856Y-89260251D01*
X182321233Y-88819684D01*
X182379452Y-88527000D01*
X184442000Y-88527000D01*
X184442000Y-112522000D01*
X138670635Y-112522000D01*
X138678359Y-112516839D01*
X139127246Y-112067952D01*
X140450000Y-112067952D01*
X140638253Y-112032530D01*
X140811153Y-111921272D01*
X140927145Y-111751512D01*
X140967952Y-111550000D01*
X140967952Y-110432899D01*
X141101521Y-110632799D01*
X141696319Y-111227596D01*
X141696321Y-111227599D01*
X141901681Y-111364816D01*
X142143920Y-111413000D01*
X142914191Y-111413000D01*
X142967488Y-111492764D01*
X143294507Y-111711271D01*
X143680252Y-111788000D01*
X143719748Y-111788000D01*
X144105493Y-111711271D01*
X144335000Y-111557919D01*
X144564507Y-111711271D01*
X144950252Y-111788000D01*
X144989748Y-111788000D01*
X145375493Y-111711271D01*
X145702512Y-111492764D01*
X145755809Y-111413000D01*
X145800635Y-111413000D01*
X145800640Y-111413001D01*
X146042879Y-111364816D01*
X146248239Y-111227599D01*
X146797316Y-110678521D01*
X146797319Y-110678519D01*
X146934536Y-110473159D01*
X146982720Y-110230920D01*
X146982720Y-109042421D01*
X147210776Y-109042620D01*
X147507857Y-108919869D01*
X147735350Y-108692773D01*
X147858620Y-108395906D01*
X147858715Y-108286565D01*
X147925136Y-108187159D01*
X147935264Y-108136240D01*
X147973321Y-107944920D01*
X147973320Y-107944915D01*
X147973320Y-107727602D01*
X148093294Y-107777420D01*
X148414736Y-107777700D01*
X148711817Y-107654949D01*
X148939310Y-107427853D01*
X149062580Y-107130986D01*
X149062860Y-106809544D01*
X148940109Y-106512463D01*
X148887720Y-106459982D01*
X148887720Y-102519480D01*
X148839536Y-102277241D01*
X148702319Y-102071881D01*
X148702316Y-102071879D01*
X148262880Y-101632442D01*
X148262880Y-101605080D01*
X148214696Y-101362841D01*
X148077479Y-101157481D01*
X148077476Y-101157479D01*
X147782637Y-100862639D01*
X147782700Y-100789744D01*
X147659949Y-100492663D01*
X147432853Y-100265170D01*
X147135986Y-100141900D01*
X146814544Y-100141620D01*
X146517463Y-100264371D01*
X146289970Y-100491467D01*
X146166700Y-100788334D01*
X146166586Y-100918880D01*
X146143984Y-100918860D01*
X145846903Y-101041611D01*
X145619410Y-101268707D01*
X145496140Y-101565574D01*
X145495860Y-101887016D01*
X145618611Y-102184097D01*
X145694541Y-102260159D01*
X145488664Y-102259980D01*
X145191583Y-102382731D01*
X144964090Y-102609827D01*
X144840820Y-102906694D01*
X144840540Y-103228136D01*
X144963291Y-103525217D01*
X145190387Y-103752710D01*
X145229040Y-103768760D01*
X145229040Y-104739598D01*
X144989748Y-104692000D01*
X144950252Y-104692000D01*
X144564507Y-104768729D01*
X144516044Y-104801111D01*
X144401512Y-104722855D01*
X144200000Y-104682048D01*
X143200000Y-104682048D01*
X143011747Y-104717470D01*
X142993129Y-104729451D01*
X142517400Y-104253722D01*
X142517400Y-102288512D01*
X143657480Y-102288512D01*
X143845733Y-102253090D01*
X144018633Y-102141832D01*
X144134625Y-101972072D01*
X144175432Y-101770560D01*
X144175432Y-100270560D01*
X144140010Y-100082307D01*
X144047365Y-99938331D01*
X152801379Y-99938331D01*
X152907496Y-100195151D01*
X152912172Y-100199836D01*
X152908186Y-100203815D01*
X152801622Y-100460450D01*
X152801379Y-100738331D01*
X152907496Y-100995151D01*
X153103815Y-101191814D01*
X153360450Y-101298378D01*
X153638331Y-101298621D01*
X153895151Y-101192504D01*
X154091814Y-100996185D01*
X154198378Y-100739550D01*
X154198621Y-100461669D01*
X154092504Y-100204849D01*
X154087828Y-100200164D01*
X154091814Y-100196185D01*
X154198378Y-99939550D01*
X154198621Y-99661669D01*
X154092504Y-99404849D01*
X153896185Y-99208186D01*
X153639550Y-99101622D01*
X153361669Y-99101379D01*
X153104849Y-99207496D01*
X152908186Y-99403815D01*
X152801622Y-99660450D01*
X152801379Y-99938331D01*
X144047365Y-99938331D01*
X144028752Y-99909407D01*
X143858992Y-99793415D01*
X143657480Y-99752608D01*
X143181373Y-99752608D01*
X143116240Y-99655130D01*
X143073465Y-99590930D01*
X143073540Y-99504504D01*
X142950789Y-99207423D01*
X142723693Y-98979930D01*
X142426826Y-98856660D01*
X142105384Y-98856380D01*
X141808303Y-98979131D01*
X141580810Y-99206227D01*
X141457540Y-99503094D01*
X141457260Y-99824536D01*
X141580011Y-100121617D01*
X141807107Y-100349110D01*
X141889528Y-100383334D01*
X141889528Y-100417000D01*
X141576278Y-100417000D01*
X141251679Y-100092401D01*
X141046319Y-99955184D01*
X140805737Y-99907329D01*
X140586856Y-99579749D01*
X140146289Y-99285372D01*
X140069009Y-99270000D01*
X140146289Y-99254628D01*
X140586856Y-98960251D01*
X140881233Y-98519684D01*
X140984605Y-98000000D01*
X140881233Y-97480316D01*
X140586856Y-97039749D01*
X140146289Y-96745372D01*
X140069009Y-96730000D01*
X140146289Y-96714628D01*
X140586856Y-96420251D01*
X140881233Y-95979684D01*
X140984605Y-95460000D01*
X140881233Y-94940316D01*
X140586856Y-94499749D01*
X140146289Y-94205372D01*
X140069009Y-94190000D01*
X140146289Y-94174628D01*
X140586856Y-93880251D01*
X140881233Y-93439684D01*
X140984605Y-92920000D01*
X140881233Y-92400316D01*
X140586856Y-91959749D01*
X140146289Y-91665372D01*
X139626605Y-91562000D01*
X139573395Y-91562000D01*
X139053711Y-91665372D01*
X138613144Y-91959749D01*
X138381516Y-92306406D01*
X138236842Y-92335183D01*
X138168699Y-92380715D01*
X138031481Y-92472401D01*
X138031479Y-92472404D01*
X137378000Y-93125882D01*
X137378000Y-88527000D01*
X139431802Y-88527000D01*
X143352399Y-92447596D01*
X143352399Y-92447596D01*
G37*
X143352399Y-92447596D02*
X143352401Y-92447599D01*
X143557761Y-92584816D01*
X143597952Y-92592810D01*
X143800000Y-92633001D01*
X143800005Y-92633000D01*
X149837802Y-92633000D01*
X155391923Y-98187121D01*
X155391860Y-98260016D01*
X155514611Y-98557097D01*
X155741707Y-98784590D01*
X156038574Y-98907860D01*
X156360016Y-98908140D01*
X156657097Y-98785389D01*
X156884590Y-98558293D01*
X157007860Y-98261426D01*
X157008140Y-97939984D01*
X156885389Y-97642903D01*
X156842685Y-97600125D01*
X156884590Y-97558293D01*
X157007860Y-97261426D01*
X157008140Y-96939984D01*
X156885389Y-96642903D01*
X156692685Y-96449863D01*
X156884590Y-96258293D01*
X157007860Y-95961426D01*
X157008140Y-95639984D01*
X156885389Y-95342903D01*
X156836479Y-95293908D01*
X156857097Y-95285389D01*
X157084590Y-95058293D01*
X157207860Y-94761426D01*
X157208140Y-94439984D01*
X157085389Y-94142903D01*
X156858293Y-93915410D01*
X156840744Y-93908123D01*
X156860016Y-93908140D01*
X157157097Y-93785389D01*
X157384590Y-93558293D01*
X157507860Y-93261426D01*
X157508140Y-92939984D01*
X157385389Y-92642903D01*
X157295007Y-92552363D01*
X157457097Y-92485389D01*
X157684590Y-92258293D01*
X157807860Y-91961426D01*
X157808140Y-91639984D01*
X157685389Y-91342903D01*
X157495131Y-91152312D01*
X157657097Y-91085389D01*
X157884590Y-90858293D01*
X158007860Y-90561426D01*
X158007925Y-90487273D01*
X158147596Y-90347601D01*
X158147599Y-90347599D01*
X158284816Y-90142239D01*
X158310089Y-90015184D01*
X158333001Y-89900000D01*
X158333000Y-89899995D01*
X158333000Y-88527000D01*
X177132048Y-88527000D01*
X177132048Y-89150000D01*
X177167470Y-89338253D01*
X177278728Y-89511153D01*
X177448488Y-89627145D01*
X177650000Y-89667952D01*
X177830121Y-89667952D01*
X177513144Y-89879749D01*
X177218767Y-90320316D01*
X177135272Y-90740074D01*
X176047599Y-89652401D01*
X175842239Y-89515184D01*
X175600000Y-89466999D01*
X175599995Y-89467000D01*
X162209793Y-89467000D01*
X162158293Y-89415410D01*
X161861426Y-89292140D01*
X161539984Y-89291860D01*
X161242903Y-89414611D01*
X161015410Y-89641707D01*
X160892140Y-89938574D01*
X160891860Y-90260016D01*
X161014611Y-90557097D01*
X161241707Y-90784590D01*
X161538574Y-90907860D01*
X161860016Y-90908140D01*
X162157097Y-90785389D01*
X162209578Y-90733000D01*
X175337802Y-90733000D01*
X176367000Y-91762198D01*
X176367000Y-91771802D01*
X176247599Y-91652401D01*
X176042239Y-91515184D01*
X175800000Y-91466999D01*
X175799995Y-91467000D01*
X162109793Y-91467000D01*
X162058293Y-91415410D01*
X161761426Y-91292140D01*
X161439984Y-91291860D01*
X161142903Y-91414611D01*
X160915410Y-91641707D01*
X160792140Y-91938574D01*
X160791860Y-92260016D01*
X160914611Y-92557097D01*
X161141707Y-92784590D01*
X161438574Y-92907860D01*
X161760016Y-92908140D01*
X162057097Y-92785389D01*
X162109578Y-92733000D01*
X175537802Y-92733000D01*
X175667000Y-92862197D01*
X175667000Y-93971803D01*
X175247599Y-93552401D01*
X175042239Y-93415184D01*
X174800000Y-93366999D01*
X174799995Y-93367000D01*
X161941709Y-93367000D01*
X161761426Y-93292140D01*
X161439984Y-93291860D01*
X161142903Y-93414611D01*
X160915410Y-93641707D01*
X160792140Y-93938574D01*
X160791860Y-94260016D01*
X160914611Y-94557097D01*
X161141707Y-94784590D01*
X161438574Y-94907860D01*
X161760016Y-94908140D01*
X162057097Y-94785389D01*
X162209752Y-94633000D01*
X174537802Y-94633000D01*
X174867000Y-94962197D01*
X174867000Y-97799995D01*
X174866999Y-97800000D01*
X174915184Y-98042239D01*
X175052401Y-98247599D01*
X176952399Y-100147596D01*
X176952401Y-100147599D01*
X177157761Y-100284816D01*
X177197952Y-100292810D01*
X177326914Y-100318463D01*
X177218767Y-100480316D01*
X177115395Y-101000000D01*
X177170071Y-101274874D01*
X174733000Y-98837802D01*
X174733000Y-96700000D01*
X174684816Y-96457761D01*
X174547599Y-96252401D01*
X174547596Y-96252399D01*
X173947599Y-95652401D01*
X173742239Y-95515184D01*
X173500000Y-95466999D01*
X173499995Y-95467000D01*
X162109793Y-95467000D01*
X162058293Y-95415410D01*
X161761426Y-95292140D01*
X161439984Y-95291860D01*
X161142903Y-95414611D01*
X160915410Y-95641707D01*
X160792140Y-95938574D01*
X160791860Y-96260016D01*
X160914611Y-96557097D01*
X161141707Y-96784590D01*
X161438574Y-96907860D01*
X161760016Y-96908140D01*
X162057097Y-96785389D01*
X162109578Y-96733000D01*
X173237802Y-96733000D01*
X173467000Y-96962197D01*
X173467000Y-98471802D01*
X172647599Y-97652401D01*
X172442239Y-97515184D01*
X172200000Y-97466999D01*
X172199995Y-97467000D01*
X162109793Y-97467000D01*
X162058293Y-97415410D01*
X161761426Y-97292140D01*
X161439984Y-97291860D01*
X161142903Y-97414611D01*
X160915410Y-97641707D01*
X160792140Y-97938574D01*
X160791860Y-98260016D01*
X160914611Y-98557097D01*
X161141707Y-98784590D01*
X161438574Y-98907860D01*
X161760016Y-98908140D01*
X162057097Y-98785389D01*
X162109578Y-98733000D01*
X171937802Y-98733000D01*
X176267000Y-103062197D01*
X176267000Y-103371803D01*
X172547599Y-99652401D01*
X172342239Y-99515184D01*
X172100000Y-99466999D01*
X172099995Y-99467000D01*
X162109793Y-99467000D01*
X162058293Y-99415410D01*
X161761426Y-99292140D01*
X161439984Y-99291860D01*
X161142903Y-99414611D01*
X160915410Y-99641707D01*
X160792140Y-99938574D01*
X160791860Y-100260016D01*
X160914611Y-100557097D01*
X161141707Y-100784590D01*
X161438574Y-100907860D01*
X161760016Y-100908140D01*
X162057097Y-100785389D01*
X162109578Y-100733000D01*
X171837802Y-100733000D01*
X175467000Y-104362197D01*
X175467000Y-104971803D01*
X172147599Y-101652401D01*
X171942239Y-101515184D01*
X171700000Y-101466999D01*
X171699995Y-101467000D01*
X162109793Y-101467000D01*
X162058293Y-101415410D01*
X161761426Y-101292140D01*
X161439984Y-101291860D01*
X161142903Y-101414611D01*
X160915410Y-101641707D01*
X160792140Y-101938574D01*
X160791860Y-102260016D01*
X160914611Y-102557097D01*
X161141707Y-102784590D01*
X161438574Y-102907860D01*
X161760016Y-102908140D01*
X162057097Y-102785389D01*
X162109578Y-102733000D01*
X171437802Y-102733000D01*
X174767000Y-106062197D01*
X174767000Y-107999995D01*
X174766999Y-108000000D01*
X174815184Y-108242239D01*
X174952401Y-108447599D01*
X176852399Y-110347596D01*
X176852401Y-110347599D01*
X177057761Y-110484816D01*
X177097952Y-110492810D01*
X177291590Y-110531328D01*
X177218767Y-110640316D01*
X177115395Y-111160000D01*
X177218767Y-111679684D01*
X177513144Y-112120251D01*
X177953711Y-112414628D01*
X178473395Y-112518000D01*
X178526605Y-112518000D01*
X179046289Y-112414628D01*
X179486856Y-112120251D01*
X179770000Y-111696495D01*
X180053144Y-112120251D01*
X180493711Y-112414628D01*
X181013395Y-112518000D01*
X181066605Y-112518000D01*
X181586289Y-112414628D01*
X182026856Y-112120251D01*
X182321233Y-111679684D01*
X182424605Y-111160000D01*
X182321233Y-110640316D01*
X182026856Y-110199749D01*
X181586289Y-109905372D01*
X181509009Y-109890000D01*
X181586289Y-109874628D01*
X182026856Y-109580251D01*
X182321233Y-109139684D01*
X182424605Y-108620000D01*
X182321233Y-108100316D01*
X182026856Y-107659749D01*
X181586289Y-107365372D01*
X181509009Y-107350000D01*
X181586289Y-107334628D01*
X182026856Y-107040251D01*
X182321233Y-106599684D01*
X182424605Y-106080000D01*
X182321233Y-105560316D01*
X182026856Y-105119749D01*
X181586289Y-104825372D01*
X181509009Y-104810000D01*
X181586289Y-104794628D01*
X182026856Y-104500251D01*
X182321233Y-104059684D01*
X182424605Y-103540000D01*
X182321233Y-103020316D01*
X182026856Y-102579749D01*
X181586289Y-102285372D01*
X181509009Y-102270000D01*
X181586289Y-102254628D01*
X182026856Y-101960251D01*
X182321233Y-101519684D01*
X182424605Y-101000000D01*
X182321233Y-100480316D01*
X182026856Y-100039749D01*
X181586289Y-99745372D01*
X181509009Y-99730000D01*
X181586289Y-99714628D01*
X182026856Y-99420251D01*
X182321233Y-98979684D01*
X182424605Y-98460000D01*
X182321233Y-97940316D01*
X182026856Y-97499749D01*
X181586289Y-97205372D01*
X181509009Y-97190000D01*
X181586289Y-97174628D01*
X182026856Y-96880251D01*
X182321233Y-96439684D01*
X182424605Y-95920000D01*
X182321233Y-95400316D01*
X182026856Y-94959749D01*
X181586289Y-94665372D01*
X181509009Y-94650000D01*
X181586289Y-94634628D01*
X182026856Y-94340251D01*
X182321233Y-93899684D01*
X182424605Y-93380000D01*
X182321233Y-92860316D01*
X182026856Y-92419749D01*
X181586289Y-92125372D01*
X181509009Y-92110000D01*
X181586289Y-92094628D01*
X182026856Y-91800251D01*
X182321233Y-91359684D01*
X182424605Y-90840000D01*
X182321233Y-90320316D01*
X182026856Y-89879749D01*
X181586289Y-89585372D01*
X181509009Y-89570000D01*
X181586289Y-89554628D01*
X182026856Y-89260251D01*
X182321233Y-88819684D01*
X182379452Y-88527000D01*
X184442000Y-88527000D01*
X184442000Y-112522000D01*
X138670635Y-112522000D01*
X138678359Y-112516839D01*
X139127246Y-112067952D01*
X140450000Y-112067952D01*
X140638253Y-112032530D01*
X140811153Y-111921272D01*
X140927145Y-111751512D01*
X140967952Y-111550000D01*
X140967952Y-110432899D01*
X141101521Y-110632799D01*
X141696319Y-111227596D01*
X141696321Y-111227599D01*
X141901681Y-111364816D01*
X142143920Y-111413000D01*
X142914191Y-111413000D01*
X142967488Y-111492764D01*
X143294507Y-111711271D01*
X143680252Y-111788000D01*
X143719748Y-111788000D01*
X144105493Y-111711271D01*
X144335000Y-111557919D01*
X144564507Y-111711271D01*
X144950252Y-111788000D01*
X144989748Y-111788000D01*
X145375493Y-111711271D01*
X145702512Y-111492764D01*
X145755809Y-111413000D01*
X145800635Y-111413000D01*
X145800640Y-111413001D01*
X146042879Y-111364816D01*
X146248239Y-111227599D01*
X146797316Y-110678521D01*
X146797319Y-110678519D01*
X146934536Y-110473159D01*
X146982720Y-110230920D01*
X146982720Y-109042421D01*
X147210776Y-109042620D01*
X147507857Y-108919869D01*
X147735350Y-108692773D01*
X147858620Y-108395906D01*
X147858715Y-108286565D01*
X147925136Y-108187159D01*
X147935264Y-108136240D01*
X147973321Y-107944920D01*
X147973320Y-107944915D01*
X147973320Y-107727602D01*
X148093294Y-107777420D01*
X148414736Y-107777700D01*
X148711817Y-107654949D01*
X148939310Y-107427853D01*
X149062580Y-107130986D01*
X149062860Y-106809544D01*
X148940109Y-106512463D01*
X148887720Y-106459982D01*
X148887720Y-102519480D01*
X148839536Y-102277241D01*
X148702319Y-102071881D01*
X148702316Y-102071879D01*
X148262880Y-101632442D01*
X148262880Y-101605080D01*
X148214696Y-101362841D01*
X148077479Y-101157481D01*
X148077476Y-101157479D01*
X147782637Y-100862639D01*
X147782700Y-100789744D01*
X147659949Y-100492663D01*
X147432853Y-100265170D01*
X147135986Y-100141900D01*
X146814544Y-100141620D01*
X146517463Y-100264371D01*
X146289970Y-100491467D01*
X146166700Y-100788334D01*
X146166586Y-100918880D01*
X146143984Y-100918860D01*
X145846903Y-101041611D01*
X145619410Y-101268707D01*
X145496140Y-101565574D01*
X145495860Y-101887016D01*
X145618611Y-102184097D01*
X145694541Y-102260159D01*
X145488664Y-102259980D01*
X145191583Y-102382731D01*
X144964090Y-102609827D01*
X144840820Y-102906694D01*
X144840540Y-103228136D01*
X144963291Y-103525217D01*
X145190387Y-103752710D01*
X145229040Y-103768760D01*
X145229040Y-104739598D01*
X144989748Y-104692000D01*
X144950252Y-104692000D01*
X144564507Y-104768729D01*
X144516044Y-104801111D01*
X144401512Y-104722855D01*
X144200000Y-104682048D01*
X143200000Y-104682048D01*
X143011747Y-104717470D01*
X142993129Y-104729451D01*
X142517400Y-104253722D01*
X142517400Y-102288512D01*
X143657480Y-102288512D01*
X143845733Y-102253090D01*
X144018633Y-102141832D01*
X144134625Y-101972072D01*
X144175432Y-101770560D01*
X144175432Y-100270560D01*
X144140010Y-100082307D01*
X144047365Y-99938331D01*
X152801379Y-99938331D01*
X152907496Y-100195151D01*
X152912172Y-100199836D01*
X152908186Y-100203815D01*
X152801622Y-100460450D01*
X152801379Y-100738331D01*
X152907496Y-100995151D01*
X153103815Y-101191814D01*
X153360450Y-101298378D01*
X153638331Y-101298621D01*
X153895151Y-101192504D01*
X154091814Y-100996185D01*
X154198378Y-100739550D01*
X154198621Y-100461669D01*
X154092504Y-100204849D01*
X154087828Y-100200164D01*
X154091814Y-100196185D01*
X154198378Y-99939550D01*
X154198621Y-99661669D01*
X154092504Y-99404849D01*
X153896185Y-99208186D01*
X153639550Y-99101622D01*
X153361669Y-99101379D01*
X153104849Y-99207496D01*
X152908186Y-99403815D01*
X152801622Y-99660450D01*
X152801379Y-99938331D01*
X144047365Y-99938331D01*
X144028752Y-99909407D01*
X143858992Y-99793415D01*
X143657480Y-99752608D01*
X143181373Y-99752608D01*
X143116240Y-99655130D01*
X143073465Y-99590930D01*
X143073540Y-99504504D01*
X142950789Y-99207423D01*
X142723693Y-98979930D01*
X142426826Y-98856660D01*
X142105384Y-98856380D01*
X141808303Y-98979131D01*
X141580810Y-99206227D01*
X141457540Y-99503094D01*
X141457260Y-99824536D01*
X141580011Y-100121617D01*
X141807107Y-100349110D01*
X141889528Y-100383334D01*
X141889528Y-100417000D01*
X141576278Y-100417000D01*
X141251679Y-100092401D01*
X141046319Y-99955184D01*
X140805737Y-99907329D01*
X140586856Y-99579749D01*
X140146289Y-99285372D01*
X140069009Y-99270000D01*
X140146289Y-99254628D01*
X140586856Y-98960251D01*
X140881233Y-98519684D01*
X140984605Y-98000000D01*
X140881233Y-97480316D01*
X140586856Y-97039749D01*
X140146289Y-96745372D01*
X140069009Y-96730000D01*
X140146289Y-96714628D01*
X140586856Y-96420251D01*
X140881233Y-95979684D01*
X140984605Y-95460000D01*
X140881233Y-94940316D01*
X140586856Y-94499749D01*
X140146289Y-94205372D01*
X140069009Y-94190000D01*
X140146289Y-94174628D01*
X140586856Y-93880251D01*
X140881233Y-93439684D01*
X140984605Y-92920000D01*
X140881233Y-92400316D01*
X140586856Y-91959749D01*
X140146289Y-91665372D01*
X139626605Y-91562000D01*
X139573395Y-91562000D01*
X139053711Y-91665372D01*
X138613144Y-91959749D01*
X138381516Y-92306406D01*
X138236842Y-92335183D01*
X138168699Y-92380715D01*
X138031481Y-92472401D01*
X138031479Y-92472404D01*
X137378000Y-93125882D01*
X137378000Y-88527000D01*
X139431802Y-88527000D01*
X143352399Y-92447596D01*
G36*
X131276801Y-107168239D02*
X131482161Y-107305456D01*
X131498616Y-107308729D01*
X131724400Y-107353641D01*
X131724405Y-107353640D01*
X136145963Y-107353640D01*
X136194239Y-107401916D01*
X136194241Y-107401919D01*
X136381437Y-107526999D01*
X136399601Y-107539136D01*
X136641840Y-107587320D01*
X138354178Y-107587320D01*
X138333675Y-107618005D01*
X138192401Y-107712401D01*
X137452401Y-108452401D01*
X137315184Y-108657761D01*
X137266999Y-108900000D01*
X137267000Y-108900005D01*
X137267000Y-110737803D01*
X137237802Y-110767000D01*
X132562197Y-110767000D01*
X132316839Y-110521641D01*
X132111479Y-110384424D01*
X131869240Y-110336239D01*
X131869235Y-110336240D01*
X118840256Y-110336240D01*
X118757792Y-110208087D01*
X118588032Y-110092095D01*
X118386520Y-110051288D01*
X115486520Y-110051288D01*
X115327000Y-110081304D01*
X115327000Y-109654889D01*
X115486520Y-109687192D01*
X118386520Y-109687192D01*
X118574773Y-109651770D01*
X118747673Y-109540512D01*
X118842150Y-109402240D01*
X123346115Y-109402240D01*
X123346120Y-109402241D01*
X123588359Y-109354056D01*
X123793719Y-109216839D01*
X126794837Y-106215720D01*
X130324282Y-106215720D01*
X131276801Y-107168239D01*
X131276801Y-107168239D01*
G37*
X131276801Y-107168239D02*
X131482161Y-107305456D01*
X131498616Y-107308729D01*
X131724400Y-107353641D01*
X131724405Y-107353640D01*
X136145963Y-107353640D01*
X136194239Y-107401916D01*
X136194241Y-107401919D01*
X136381437Y-107526999D01*
X136399601Y-107539136D01*
X136641840Y-107587320D01*
X138354178Y-107587320D01*
X138333675Y-107618005D01*
X138192401Y-107712401D01*
X137452401Y-108452401D01*
X137315184Y-108657761D01*
X137266999Y-108900000D01*
X137267000Y-108900005D01*
X137267000Y-110737803D01*
X137237802Y-110767000D01*
X132562197Y-110767000D01*
X132316839Y-110521641D01*
X132111479Y-110384424D01*
X131869240Y-110336239D01*
X131869235Y-110336240D01*
X118840256Y-110336240D01*
X118757792Y-110208087D01*
X118588032Y-110092095D01*
X118386520Y-110051288D01*
X115486520Y-110051288D01*
X115327000Y-110081304D01*
X115327000Y-109654889D01*
X115486520Y-109687192D01*
X118386520Y-109687192D01*
X118574773Y-109651770D01*
X118747673Y-109540512D01*
X118842150Y-109402240D01*
X123346115Y-109402240D01*
X123346120Y-109402241D01*
X123588359Y-109354056D01*
X123793719Y-109216839D01*
X126794837Y-106215720D01*
X130324282Y-106215720D01*
X131276801Y-107168239D01*
G36*
X140866481Y-101497599D02*
X141071841Y-101634816D01*
X141106485Y-101641707D01*
X141251400Y-101670533D01*
X141251400Y-104515915D01*
X141251399Y-104515920D01*
X141299584Y-104758159D01*
X141436801Y-104963519D01*
X142620881Y-106147599D01*
X142682048Y-106188469D01*
X142682048Y-106200000D01*
X142717470Y-106388253D01*
X142797178Y-106512123D01*
X142748981Y-106584255D01*
X142672252Y-106970000D01*
X142748981Y-107355745D01*
X142915528Y-107605000D01*
X142914191Y-107607000D01*
X142274038Y-107607000D01*
X141173759Y-106506721D01*
X140968399Y-106369504D01*
X140726160Y-106321319D01*
X140726155Y-106321320D01*
X137555358Y-106321320D01*
X138775996Y-105100681D01*
X138775999Y-105100679D01*
X138913216Y-104895319D01*
X138961400Y-104653080D01*
X138961400Y-104613798D01*
X139209568Y-104365630D01*
X139573395Y-104438000D01*
X139626605Y-104438000D01*
X140146289Y-104334628D01*
X140586856Y-104040251D01*
X140881233Y-103599684D01*
X140984605Y-103080000D01*
X140881233Y-102560316D01*
X140586856Y-102119749D01*
X140146289Y-101825372D01*
X140069009Y-101810000D01*
X140146289Y-101794628D01*
X140586856Y-101500251D01*
X140699920Y-101331038D01*
X140866481Y-101497599D01*
X140866481Y-101497599D01*
G37*
X140866481Y-101497599D02*
X141071841Y-101634816D01*
X141106485Y-101641707D01*
X141251400Y-101670533D01*
X141251400Y-104515915D01*
X141251399Y-104515920D01*
X141299584Y-104758159D01*
X141436801Y-104963519D01*
X142620881Y-106147599D01*
X142682048Y-106188469D01*
X142682048Y-106200000D01*
X142717470Y-106388253D01*
X142797178Y-106512123D01*
X142748981Y-106584255D01*
X142672252Y-106970000D01*
X142748981Y-107355745D01*
X142915528Y-107605000D01*
X142914191Y-107607000D01*
X142274038Y-107607000D01*
X141173759Y-106506721D01*
X140968399Y-106369504D01*
X140726160Y-106321319D01*
X140726155Y-106321320D01*
X137555358Y-106321320D01*
X138775996Y-105100681D01*
X138775999Y-105100679D01*
X138913216Y-104895319D01*
X138961400Y-104653080D01*
X138961400Y-104613798D01*
X139209568Y-104365630D01*
X139573395Y-104438000D01*
X139626605Y-104438000D01*
X140146289Y-104334628D01*
X140586856Y-104040251D01*
X140881233Y-103599684D01*
X140984605Y-103080000D01*
X140881233Y-102560316D01*
X140586856Y-102119749D01*
X140146289Y-101825372D01*
X140069009Y-101810000D01*
X140146289Y-101794628D01*
X140586856Y-101500251D01*
X140699920Y-101331038D01*
X140866481Y-101497599D01*
M02*
