G04 #@! TF.FileFunction,Paste,Top*
%FSLAX46Y46*%
G04 Gerber Fmt 4.6, Leading zero omitted, Abs format (unit mm)*
G04 Created by KiCad (PCBNEW 4.0.5+dfsg1-4) date Sat Sep  9 17:34:41 2017*
%MOMM*%
%LPD*%
G01*
G04 APERTURE LIST*
%ADD10C,0.100000*%
%ADD11R,2.000000X1.000000*%
%ADD12R,1.000000X2.000000*%
%ADD13R,5.000000X5.000000*%
%ADD14R,1.250000X1.500000*%
%ADD15R,1.750000X0.450000*%
G04 APERTURE END LIST*
D10*
D11*
X159100000Y-104100000D03*
X159100000Y-100100000D03*
X159100000Y-102100000D03*
X159100000Y-96100000D03*
X159100000Y-98100000D03*
X159100000Y-94100000D03*
X159100000Y-92100000D03*
X159100000Y-90100000D03*
D12*
X162100000Y-106200000D03*
X164100000Y-106200000D03*
X166100000Y-106200000D03*
X168100000Y-106200000D03*
X170100000Y-106200000D03*
X172100000Y-106200000D03*
D11*
X175100000Y-90100000D03*
X175100000Y-92100000D03*
X175100000Y-94100000D03*
X175100000Y-98100000D03*
X175100000Y-96100000D03*
X175100000Y-102100000D03*
X175100000Y-100100000D03*
X175100000Y-104100000D03*
D13*
X167100000Y-98200000D03*
D14*
X153300000Y-102650000D03*
X153300000Y-105150000D03*
X156700000Y-106050000D03*
X156700000Y-108550000D03*
X156700000Y-103950000D03*
X156700000Y-101450000D03*
D15*
X143800000Y-94575000D03*
X143800000Y-95225000D03*
X143800000Y-95875000D03*
X143800000Y-96525000D03*
X143800000Y-97175000D03*
X143800000Y-97825000D03*
X143800000Y-98475000D03*
X143800000Y-99125000D03*
X143800000Y-99775000D03*
X143800000Y-100425000D03*
X143800000Y-101075000D03*
X143800000Y-101725000D03*
X143800000Y-102375000D03*
X143800000Y-103025000D03*
X151000000Y-103025000D03*
X151000000Y-102375000D03*
X151000000Y-101725000D03*
X151000000Y-101075000D03*
X151000000Y-100425000D03*
X151000000Y-99775000D03*
X151000000Y-99125000D03*
X151000000Y-98475000D03*
X151000000Y-97825000D03*
X151000000Y-97175000D03*
X151000000Y-96525000D03*
X151000000Y-95875000D03*
X151000000Y-95225000D03*
X151000000Y-94575000D03*
M02*
