G04 #@! TF.FileFunction,Soldermask,Top*
%FSLAX46Y46*%
G04 Gerber Fmt 4.6, Leading zero omitted, Abs format (unit mm)*
G04 Created by KiCad (PCBNEW 4.0.5+dfsg1-4) date Sat Sep  9 17:34:41 2017*
%MOMM*%
%LPD*%
G01*
G04 APERTURE LIST*
%ADD10C,0.100000*%
%ADD11C,0.381000*%
%ADD12R,2.000000X1.000000*%
%ADD13R,1.000000X2.000000*%
%ADD14R,5.000000X5.000000*%
%ADD15R,1.700000X1.700000*%
%ADD16O,1.700000X1.700000*%
%ADD17R,1.250000X1.500000*%
%ADD18R,1.750000X0.450000*%
%ADD19R,1.000000X1.000000*%
%ADD20O,1.000000X1.000000*%
%ADD21C,0.600000*%
G04 APERTURE END LIST*
D10*
D11*
X125404880Y-109758480D03*
X126222760Y-109758480D03*
X127863600Y-109783880D03*
X127045720Y-109783880D03*
X130286760Y-109804200D03*
X131104640Y-109804200D03*
X129463800Y-109778800D03*
X128645920Y-109778800D03*
X145500000Y-100400000D03*
X155500000Y-111000000D03*
X156300000Y-111000000D03*
X157100000Y-111000000D03*
X157900000Y-111000000D03*
X171100000Y-104200000D03*
X171900000Y-104200000D03*
X169500000Y-104200000D03*
X170300000Y-104200000D03*
X160400000Y-88900000D03*
X161200000Y-88900000D03*
X162000000Y-88900000D03*
X162800000Y-88900000D03*
X169100000Y-101100000D03*
X169900000Y-101100000D03*
X163900000Y-99100000D03*
X164700000Y-99100000D03*
X163900000Y-97100000D03*
X164700000Y-97100000D03*
X149600000Y-103900000D03*
X149600000Y-103100000D03*
X149600000Y-102300000D03*
D12*
X159100000Y-104100000D03*
X159100000Y-100100000D03*
X159100000Y-102100000D03*
X159100000Y-96100000D03*
X159100000Y-98100000D03*
X159100000Y-94100000D03*
X159100000Y-92100000D03*
X159100000Y-90100000D03*
D13*
X162100000Y-106200000D03*
X164100000Y-106200000D03*
X166100000Y-106200000D03*
X168100000Y-106200000D03*
X170100000Y-106200000D03*
X172100000Y-106200000D03*
D12*
X175100000Y-90100000D03*
X175100000Y-92100000D03*
X175100000Y-94100000D03*
X175100000Y-98100000D03*
X175100000Y-96100000D03*
X175100000Y-102100000D03*
X175100000Y-100100000D03*
X175100000Y-104100000D03*
D14*
X167100000Y-98200000D03*
D15*
X138400000Y-86800000D03*
D16*
X138400000Y-84260000D03*
X140940000Y-86800000D03*
X140940000Y-84260000D03*
X143480000Y-86800000D03*
X143480000Y-84260000D03*
X146020000Y-86800000D03*
X146020000Y-84260000D03*
X148560000Y-86800000D03*
X148560000Y-84260000D03*
X151100000Y-86800000D03*
X151100000Y-84260000D03*
X153640000Y-86800000D03*
X153640000Y-84260000D03*
X156180000Y-86800000D03*
X156180000Y-84260000D03*
D17*
X153300000Y-102650000D03*
X153300000Y-105150000D03*
X156700000Y-106050000D03*
X156700000Y-108550000D03*
X156700000Y-103950000D03*
X156700000Y-101450000D03*
D11*
X153500000Y-100600000D03*
X153500000Y-99800000D03*
D18*
X143800000Y-94575000D03*
X143800000Y-95225000D03*
X143800000Y-95875000D03*
X143800000Y-96525000D03*
X143800000Y-97175000D03*
X143800000Y-97825000D03*
X143800000Y-98475000D03*
X143800000Y-99125000D03*
X143800000Y-99775000D03*
X143800000Y-100425000D03*
X143800000Y-101075000D03*
X143800000Y-101725000D03*
X143800000Y-102375000D03*
X143800000Y-103025000D03*
X151000000Y-103025000D03*
X151000000Y-102375000D03*
X151000000Y-101725000D03*
X151000000Y-101075000D03*
X151000000Y-100425000D03*
X151000000Y-99775000D03*
X151000000Y-99125000D03*
X151000000Y-98475000D03*
X151000000Y-97825000D03*
X151000000Y-97175000D03*
X151000000Y-96525000D03*
X151000000Y-95875000D03*
X151000000Y-95225000D03*
X151000000Y-94575000D03*
D19*
X143700000Y-105700000D03*
D20*
X144970000Y-105700000D03*
X143700000Y-106970000D03*
X144970000Y-106970000D03*
X143700000Y-108240000D03*
X144970000Y-108240000D03*
X143700000Y-109510000D03*
X144970000Y-109510000D03*
X143700000Y-110780000D03*
X144970000Y-110780000D03*
D15*
X139600000Y-110700000D03*
D16*
X139600000Y-108160000D03*
X139600000Y-105620000D03*
X139600000Y-103080000D03*
X139600000Y-100540000D03*
X139600000Y-98000000D03*
X139600000Y-95460000D03*
X139600000Y-92920000D03*
D15*
X178500000Y-88300000D03*
D16*
X181040000Y-88300000D03*
X178500000Y-90840000D03*
X181040000Y-90840000D03*
X178500000Y-93380000D03*
X181040000Y-93380000D03*
X178500000Y-95920000D03*
X181040000Y-95920000D03*
X178500000Y-98460000D03*
X181040000Y-98460000D03*
X178500000Y-101000000D03*
X181040000Y-101000000D03*
X178500000Y-103540000D03*
X181040000Y-103540000D03*
X178500000Y-106080000D03*
X181040000Y-106080000D03*
X178500000Y-108620000D03*
X181040000Y-108620000D03*
X178500000Y-111160000D03*
X181040000Y-111160000D03*
D15*
X150300000Y-110300000D03*
D16*
X152840000Y-110300000D03*
D21*
X161600000Y-102100000D03*
X161600000Y-100100000D03*
X161600000Y-98100000D03*
X161600000Y-96100000D03*
X161600000Y-94100000D03*
X161600000Y-92100000D03*
X161700000Y-90100000D03*
X136575800Y-104937560D03*
X142265400Y-99664520D03*
X146502120Y-102809040D03*
X145648680Y-103068120D03*
X146304000Y-101727000D03*
X147050760Y-108234480D03*
X146974560Y-100949760D03*
X148254720Y-106969560D03*
X156200000Y-98100000D03*
X156200000Y-97100000D03*
X156200000Y-95800000D03*
X156400000Y-94600000D03*
X156700000Y-93100000D03*
X157000000Y-91800000D03*
X157200000Y-90400000D03*
M02*
