G04 #@! TF.FileFunction,Legend,Top*
%FSLAX46Y46*%
G04 Gerber Fmt 4.6, Leading zero omitted, Abs format (unit mm)*
G04 Created by KiCad (PCBNEW 4.0.5+dfsg1-4) date Sat Sep  9 17:34:41 2017*
%MOMM*%
%LPD*%
G01*
G04 APERTURE LIST*
%ADD10C,0.100000*%
%ADD11C,0.250000*%
%ADD12C,1.000000*%
%ADD13C,0.150000*%
%ADD14C,0.120000*%
G04 APERTURE END LIST*
D10*
D11*
X159905227Y-109776634D02*
X159905227Y-110443301D01*
X159476655Y-109776634D02*
X159476655Y-110300444D01*
X159524274Y-110395682D01*
X159619512Y-110443301D01*
X159762370Y-110443301D01*
X159857608Y-110395682D01*
X159905227Y-110348063D01*
X160333798Y-110395682D02*
X160476655Y-110443301D01*
X160714751Y-110443301D01*
X160809989Y-110395682D01*
X160857608Y-110348063D01*
X160905227Y-110252825D01*
X160905227Y-110157587D01*
X160857608Y-110062349D01*
X160809989Y-110014730D01*
X160714751Y-109967110D01*
X160524274Y-109919491D01*
X160429036Y-109871872D01*
X160381417Y-109824253D01*
X160333798Y-109729015D01*
X160333798Y-109633777D01*
X160381417Y-109538539D01*
X160429036Y-109490920D01*
X160524274Y-109443301D01*
X160762370Y-109443301D01*
X160905227Y-109490920D01*
X161333798Y-110443301D02*
X161333798Y-109443301D01*
X161571893Y-109443301D01*
X161714751Y-109490920D01*
X161809989Y-109586158D01*
X161857608Y-109681396D01*
X161905227Y-109871872D01*
X161905227Y-110014730D01*
X161857608Y-110205206D01*
X161809989Y-110300444D01*
X161714751Y-110395682D01*
X161571893Y-110443301D01*
X161333798Y-110443301D01*
X163095703Y-110062349D02*
X163857608Y-110062349D01*
X165667132Y-110443301D02*
X165333798Y-109967110D01*
X165095703Y-110443301D02*
X165095703Y-109443301D01*
X165476656Y-109443301D01*
X165571894Y-109490920D01*
X165619513Y-109538539D01*
X165667132Y-109633777D01*
X165667132Y-109776634D01*
X165619513Y-109871872D01*
X165571894Y-109919491D01*
X165476656Y-109967110D01*
X165095703Y-109967110D01*
X166286179Y-109443301D02*
X166381418Y-109443301D01*
X166476656Y-109490920D01*
X166524275Y-109538539D01*
X166571894Y-109633777D01*
X166619513Y-109824253D01*
X166619513Y-110062349D01*
X166571894Y-110252825D01*
X166524275Y-110348063D01*
X166476656Y-110395682D01*
X166381418Y-110443301D01*
X166286179Y-110443301D01*
X166190941Y-110395682D01*
X166143322Y-110348063D01*
X166095703Y-110252825D01*
X166048084Y-110062349D01*
X166048084Y-109824253D01*
X166095703Y-109633777D01*
X166143322Y-109538539D01*
X166190941Y-109490920D01*
X166286179Y-109443301D01*
X167048084Y-110348063D02*
X167095703Y-110395682D01*
X167048084Y-110443301D01*
X167000465Y-110395682D01*
X167048084Y-110348063D01*
X167048084Y-110443301D01*
X168048084Y-110443301D02*
X167476655Y-110443301D01*
X167762369Y-110443301D02*
X167762369Y-109443301D01*
X167667131Y-109586158D01*
X167571893Y-109681396D01*
X167476655Y-109729015D01*
X159286179Y-112193301D02*
X159286179Y-111526634D01*
X159286179Y-111621872D02*
X159333798Y-111574253D01*
X159429036Y-111526634D01*
X159571894Y-111526634D01*
X159667132Y-111574253D01*
X159714751Y-111669491D01*
X159714751Y-112193301D01*
X159714751Y-111669491D02*
X159762370Y-111574253D01*
X159857608Y-111526634D01*
X160000465Y-111526634D01*
X160095703Y-111574253D01*
X160143322Y-111669491D01*
X160143322Y-112193301D01*
X161048084Y-112193301D02*
X161048084Y-111669491D01*
X161000465Y-111574253D01*
X160905227Y-111526634D01*
X160714750Y-111526634D01*
X160619512Y-111574253D01*
X161048084Y-112145682D02*
X160952846Y-112193301D01*
X160714750Y-112193301D01*
X160619512Y-112145682D01*
X160571893Y-112050444D01*
X160571893Y-111955206D01*
X160619512Y-111859968D01*
X160714750Y-111812349D01*
X160952846Y-111812349D01*
X161048084Y-111764730D01*
X161952846Y-112145682D02*
X161857608Y-112193301D01*
X161667131Y-112193301D01*
X161571893Y-112145682D01*
X161524274Y-112098063D01*
X161476655Y-112002825D01*
X161476655Y-111717110D01*
X161524274Y-111621872D01*
X161571893Y-111574253D01*
X161667131Y-111526634D01*
X161857608Y-111526634D01*
X161952846Y-111574253D01*
X162381417Y-112193301D02*
X162381417Y-111193301D01*
X162809989Y-112193301D02*
X162809989Y-111669491D01*
X162762370Y-111574253D01*
X162667132Y-111526634D01*
X162524274Y-111526634D01*
X162429036Y-111574253D01*
X162381417Y-111621872D01*
X163286179Y-112193301D02*
X163286179Y-111526634D01*
X163286179Y-111193301D02*
X163238560Y-111240920D01*
X163286179Y-111288539D01*
X163333798Y-111240920D01*
X163286179Y-111193301D01*
X163286179Y-111288539D01*
X163762369Y-111526634D02*
X163762369Y-112193301D01*
X163762369Y-111621872D02*
X163809988Y-111574253D01*
X163905226Y-111526634D01*
X164048084Y-111526634D01*
X164143322Y-111574253D01*
X164190941Y-111669491D01*
X164190941Y-112193301D01*
X165048084Y-112145682D02*
X164952846Y-112193301D01*
X164762369Y-112193301D01*
X164667131Y-112145682D01*
X164619512Y-112050444D01*
X164619512Y-111669491D01*
X164667131Y-111574253D01*
X164762369Y-111526634D01*
X164952846Y-111526634D01*
X165048084Y-111574253D01*
X165095703Y-111669491D01*
X165095703Y-111764730D01*
X164619512Y-111859968D01*
X165524274Y-112193301D02*
X165524274Y-111193301D01*
X165952846Y-112193301D02*
X165952846Y-111669491D01*
X165905227Y-111574253D01*
X165809989Y-111526634D01*
X165667131Y-111526634D01*
X165571893Y-111574253D01*
X165524274Y-111621872D01*
X166857608Y-111526634D02*
X166857608Y-112193301D01*
X166429036Y-111526634D02*
X166429036Y-112050444D01*
X166476655Y-112145682D01*
X166571893Y-112193301D01*
X166714751Y-112193301D01*
X166809989Y-112145682D01*
X166857608Y-112098063D01*
X167333798Y-112193301D02*
X167333798Y-111526634D01*
X167333798Y-111621872D02*
X167381417Y-111574253D01*
X167476655Y-111526634D01*
X167619513Y-111526634D01*
X167714751Y-111574253D01*
X167762370Y-111669491D01*
X167762370Y-112193301D01*
X167762370Y-111669491D02*
X167809989Y-111574253D01*
X167905227Y-111526634D01*
X168048084Y-111526634D01*
X168143322Y-111574253D01*
X168190941Y-111669491D01*
X168190941Y-112193301D01*
D10*
X132000000Y-102080000D02*
X132000000Y-113080000D01*
D12*
X176382843Y-88200000D02*
G75*
G03X176382843Y-88200000I-282843J0D01*
G01*
D13*
X159100000Y-89200000D02*
X159100000Y-82200000D01*
X159100000Y-106200000D02*
X159100000Y-105200000D01*
X161100000Y-106200000D02*
X159100000Y-106200000D01*
X175100000Y-106200000D02*
X173100000Y-106200000D01*
X175100000Y-89200000D02*
X175100000Y-82200000D01*
X175100000Y-106200000D02*
X175100000Y-105200000D01*
X160100000Y-82200000D02*
X159100000Y-83200000D01*
X161100000Y-82200000D02*
X159100000Y-84200000D01*
X162100000Y-82200000D02*
X159100000Y-85200000D01*
X163100000Y-82200000D02*
X159100000Y-86200000D01*
X164100000Y-82200000D02*
X159100000Y-87200000D01*
X165100000Y-82200000D02*
X159100000Y-88200000D01*
X160100000Y-88200000D02*
X166100000Y-82200000D01*
X167100000Y-82200000D02*
X161100000Y-88200000D01*
X168100000Y-82200000D02*
X162100000Y-88200000D01*
X163100000Y-88200000D02*
X169100000Y-82200000D01*
X170100000Y-82200000D02*
X164100000Y-88200000D01*
X165100000Y-88200000D02*
X171100000Y-82200000D01*
X172100000Y-82200000D02*
X166100000Y-88200000D01*
X173100000Y-82200000D02*
X167100000Y-88200000D01*
X174100000Y-82200000D02*
X168100000Y-88200000D01*
X175100000Y-82200000D02*
X169100000Y-88200000D01*
X175100000Y-87200000D02*
X174100000Y-88200000D01*
X175100000Y-83200000D02*
X170100000Y-88200000D01*
X175100000Y-84200000D02*
X171100000Y-88200000D01*
X175100000Y-85200000D02*
X172100000Y-88200000D01*
X175100000Y-86200000D02*
X173100000Y-88200000D01*
X175100000Y-88200000D02*
X159100000Y-88200000D01*
X159100000Y-82200000D02*
X175100000Y-82200000D01*
D14*
X137070000Y-82920000D02*
X139670000Y-82920000D01*
X139670000Y-82920000D02*
X139670000Y-80300000D01*
X139670000Y-80300000D02*
X137070000Y-80300000D01*
X137070000Y-80300000D02*
X137070000Y-82920000D01*
X138020000Y-80300000D02*
X138780000Y-80300000D01*
X138780000Y-80300000D02*
X138780000Y-74300000D01*
X138780000Y-74300000D02*
X138020000Y-74300000D01*
X138020000Y-74300000D02*
X138020000Y-80300000D01*
X138020000Y-83350000D02*
X138020000Y-82920000D01*
X138780000Y-83350000D02*
X138780000Y-82920000D01*
X138020000Y-85890000D02*
X138020000Y-85170000D01*
X138780000Y-85890000D02*
X138780000Y-85170000D01*
X138140000Y-80300000D02*
X138140000Y-74300000D01*
X138260000Y-80300000D02*
X138260000Y-74300000D01*
X138380000Y-80300000D02*
X138380000Y-74300000D01*
X138500000Y-80300000D02*
X138500000Y-74300000D01*
X138620000Y-80300000D02*
X138620000Y-74300000D01*
X138740000Y-80300000D02*
X138740000Y-74300000D01*
X139670000Y-82920000D02*
X142210000Y-82920000D01*
X142210000Y-82920000D02*
X142210000Y-80300000D01*
X142210000Y-80300000D02*
X139670000Y-80300000D01*
X139670000Y-80300000D02*
X139670000Y-82920000D01*
X140560000Y-80300000D02*
X141320000Y-80300000D01*
X141320000Y-80300000D02*
X141320000Y-74300000D01*
X141320000Y-74300000D02*
X140560000Y-74300000D01*
X140560000Y-74300000D02*
X140560000Y-80300000D01*
X140560000Y-83350000D02*
X140560000Y-82920000D01*
X141320000Y-83350000D02*
X141320000Y-82920000D01*
X140560000Y-85890000D02*
X140560000Y-85170000D01*
X141320000Y-85890000D02*
X141320000Y-85170000D01*
X142210000Y-82920000D02*
X144750000Y-82920000D01*
X144750000Y-82920000D02*
X144750000Y-80300000D01*
X144750000Y-80300000D02*
X142210000Y-80300000D01*
X142210000Y-80300000D02*
X142210000Y-82920000D01*
X143100000Y-80300000D02*
X143860000Y-80300000D01*
X143860000Y-80300000D02*
X143860000Y-74300000D01*
X143860000Y-74300000D02*
X143100000Y-74300000D01*
X143100000Y-74300000D02*
X143100000Y-80300000D01*
X143100000Y-83350000D02*
X143100000Y-82920000D01*
X143860000Y-83350000D02*
X143860000Y-82920000D01*
X143100000Y-85890000D02*
X143100000Y-85170000D01*
X143860000Y-85890000D02*
X143860000Y-85170000D01*
X144750000Y-82920000D02*
X147290000Y-82920000D01*
X147290000Y-82920000D02*
X147290000Y-80300000D01*
X147290000Y-80300000D02*
X144750000Y-80300000D01*
X144750000Y-80300000D02*
X144750000Y-82920000D01*
X145640000Y-80300000D02*
X146400000Y-80300000D01*
X146400000Y-80300000D02*
X146400000Y-74300000D01*
X146400000Y-74300000D02*
X145640000Y-74300000D01*
X145640000Y-74300000D02*
X145640000Y-80300000D01*
X145640000Y-83350000D02*
X145640000Y-82920000D01*
X146400000Y-83350000D02*
X146400000Y-82920000D01*
X145640000Y-85890000D02*
X145640000Y-85170000D01*
X146400000Y-85890000D02*
X146400000Y-85170000D01*
X147290000Y-82920000D02*
X149830000Y-82920000D01*
X149830000Y-82920000D02*
X149830000Y-80300000D01*
X149830000Y-80300000D02*
X147290000Y-80300000D01*
X147290000Y-80300000D02*
X147290000Y-82920000D01*
X148180000Y-80300000D02*
X148940000Y-80300000D01*
X148940000Y-80300000D02*
X148940000Y-74300000D01*
X148940000Y-74300000D02*
X148180000Y-74300000D01*
X148180000Y-74300000D02*
X148180000Y-80300000D01*
X148180000Y-83350000D02*
X148180000Y-82920000D01*
X148940000Y-83350000D02*
X148940000Y-82920000D01*
X148180000Y-85890000D02*
X148180000Y-85170000D01*
X148940000Y-85890000D02*
X148940000Y-85170000D01*
X149830000Y-82920000D02*
X152370000Y-82920000D01*
X152370000Y-82920000D02*
X152370000Y-80300000D01*
X152370000Y-80300000D02*
X149830000Y-80300000D01*
X149830000Y-80300000D02*
X149830000Y-82920000D01*
X150720000Y-80300000D02*
X151480000Y-80300000D01*
X151480000Y-80300000D02*
X151480000Y-74300000D01*
X151480000Y-74300000D02*
X150720000Y-74300000D01*
X150720000Y-74300000D02*
X150720000Y-80300000D01*
X150720000Y-83350000D02*
X150720000Y-82920000D01*
X151480000Y-83350000D02*
X151480000Y-82920000D01*
X150720000Y-85890000D02*
X150720000Y-85170000D01*
X151480000Y-85890000D02*
X151480000Y-85170000D01*
X152370000Y-82920000D02*
X154910000Y-82920000D01*
X154910000Y-82920000D02*
X154910000Y-80300000D01*
X154910000Y-80300000D02*
X152370000Y-80300000D01*
X152370000Y-80300000D02*
X152370000Y-82920000D01*
X153260000Y-80300000D02*
X154020000Y-80300000D01*
X154020000Y-80300000D02*
X154020000Y-74300000D01*
X154020000Y-74300000D02*
X153260000Y-74300000D01*
X153260000Y-74300000D02*
X153260000Y-80300000D01*
X153260000Y-83350000D02*
X153260000Y-82920000D01*
X154020000Y-83350000D02*
X154020000Y-82920000D01*
X153260000Y-85890000D02*
X153260000Y-85170000D01*
X154020000Y-85890000D02*
X154020000Y-85170000D01*
X154910000Y-82920000D02*
X157510000Y-82920000D01*
X157510000Y-82920000D02*
X157510000Y-80300000D01*
X157510000Y-80300000D02*
X154910000Y-80300000D01*
X154910000Y-80300000D02*
X154910000Y-82920000D01*
X155800000Y-80300000D02*
X156560000Y-80300000D01*
X156560000Y-80300000D02*
X156560000Y-74300000D01*
X156560000Y-74300000D02*
X155800000Y-74300000D01*
X155800000Y-74300000D02*
X155800000Y-80300000D01*
X155800000Y-83350000D02*
X155800000Y-82920000D01*
X156560000Y-83350000D02*
X156560000Y-82920000D01*
X155800000Y-85890000D02*
X155800000Y-85170000D01*
X156560000Y-85890000D02*
X156560000Y-85170000D01*
X138400000Y-88070000D02*
X137130000Y-88070000D01*
X137130000Y-88070000D02*
X137130000Y-86800000D01*
X154150000Y-104400000D02*
X154150000Y-103400000D01*
X152450000Y-103400000D02*
X152450000Y-104400000D01*
X157550000Y-107800000D02*
X157550000Y-106800000D01*
X155850000Y-106800000D02*
X155850000Y-107800000D01*
X155850000Y-102200000D02*
X155850000Y-103200000D01*
X157550000Y-103200000D02*
X157550000Y-102200000D01*
D13*
X144525000Y-93475000D02*
X144525000Y-94050000D01*
X150275000Y-93475000D02*
X150275000Y-94125000D01*
X150275000Y-104125000D02*
X150275000Y-103475000D01*
X144525000Y-104125000D02*
X144525000Y-103475000D01*
X144525000Y-93475000D02*
X150275000Y-93475000D01*
X144525000Y-104125000D02*
X150275000Y-104125000D01*
X144525000Y-94050000D02*
X142925000Y-94050000D01*
D14*
X142570000Y-106335000D02*
X142570000Y-111475000D01*
X142570000Y-111475000D02*
X146100000Y-111475000D01*
X146100000Y-111475000D02*
X146100000Y-105005000D01*
X146100000Y-105005000D02*
X144335000Y-105005000D01*
X144335000Y-105005000D02*
X144335000Y-106335000D01*
X144335000Y-106335000D02*
X142570000Y-106335000D01*
X142570000Y-105700000D02*
X142570000Y-105005000D01*
X142570000Y-105005000D02*
X143700000Y-105005000D01*
X140930000Y-109430000D02*
X140930000Y-91590000D01*
X140930000Y-91590000D02*
X138270000Y-91590000D01*
X138270000Y-91590000D02*
X138270000Y-109430000D01*
X138270000Y-109430000D02*
X140930000Y-109430000D01*
X140930000Y-110700000D02*
X140930000Y-112030000D01*
X140930000Y-112030000D02*
X139600000Y-112030000D01*
X182380000Y-86970000D02*
X182380000Y-89570000D01*
X182380000Y-89570000D02*
X185000000Y-89570000D01*
X185000000Y-89570000D02*
X185000000Y-86970000D01*
X185000000Y-86970000D02*
X182380000Y-86970000D01*
X185000000Y-87920000D02*
X185000000Y-88680000D01*
X185000000Y-88680000D02*
X191000000Y-88680000D01*
X191000000Y-88680000D02*
X191000000Y-87920000D01*
X191000000Y-87920000D02*
X185000000Y-87920000D01*
X181950000Y-87920000D02*
X182380000Y-87920000D01*
X181950000Y-88680000D02*
X182380000Y-88680000D01*
X179410000Y-87920000D02*
X180130000Y-87920000D01*
X179410000Y-88680000D02*
X180130000Y-88680000D01*
X185000000Y-88040000D02*
X191000000Y-88040000D01*
X185000000Y-88160000D02*
X191000000Y-88160000D01*
X185000000Y-88280000D02*
X191000000Y-88280000D01*
X185000000Y-88400000D02*
X191000000Y-88400000D01*
X185000000Y-88520000D02*
X191000000Y-88520000D01*
X185000000Y-88640000D02*
X191000000Y-88640000D01*
X182380000Y-89570000D02*
X182380000Y-92110000D01*
X182380000Y-92110000D02*
X185000000Y-92110000D01*
X185000000Y-92110000D02*
X185000000Y-89570000D01*
X185000000Y-89570000D02*
X182380000Y-89570000D01*
X185000000Y-90460000D02*
X185000000Y-91220000D01*
X185000000Y-91220000D02*
X191000000Y-91220000D01*
X191000000Y-91220000D02*
X191000000Y-90460000D01*
X191000000Y-90460000D02*
X185000000Y-90460000D01*
X181950000Y-90460000D02*
X182380000Y-90460000D01*
X181950000Y-91220000D02*
X182380000Y-91220000D01*
X179410000Y-90460000D02*
X180130000Y-90460000D01*
X179410000Y-91220000D02*
X180130000Y-91220000D01*
X182380000Y-92110000D02*
X182380000Y-94650000D01*
X182380000Y-94650000D02*
X185000000Y-94650000D01*
X185000000Y-94650000D02*
X185000000Y-92110000D01*
X185000000Y-92110000D02*
X182380000Y-92110000D01*
X185000000Y-93000000D02*
X185000000Y-93760000D01*
X185000000Y-93760000D02*
X191000000Y-93760000D01*
X191000000Y-93760000D02*
X191000000Y-93000000D01*
X191000000Y-93000000D02*
X185000000Y-93000000D01*
X181950000Y-93000000D02*
X182380000Y-93000000D01*
X181950000Y-93760000D02*
X182380000Y-93760000D01*
X179410000Y-93000000D02*
X180130000Y-93000000D01*
X179410000Y-93760000D02*
X180130000Y-93760000D01*
X182380000Y-94650000D02*
X182380000Y-97190000D01*
X182380000Y-97190000D02*
X185000000Y-97190000D01*
X185000000Y-97190000D02*
X185000000Y-94650000D01*
X185000000Y-94650000D02*
X182380000Y-94650000D01*
X185000000Y-95540000D02*
X185000000Y-96300000D01*
X185000000Y-96300000D02*
X191000000Y-96300000D01*
X191000000Y-96300000D02*
X191000000Y-95540000D01*
X191000000Y-95540000D02*
X185000000Y-95540000D01*
X181950000Y-95540000D02*
X182380000Y-95540000D01*
X181950000Y-96300000D02*
X182380000Y-96300000D01*
X179410000Y-95540000D02*
X180130000Y-95540000D01*
X179410000Y-96300000D02*
X180130000Y-96300000D01*
X182380000Y-97190000D02*
X182380000Y-99730000D01*
X182380000Y-99730000D02*
X185000000Y-99730000D01*
X185000000Y-99730000D02*
X185000000Y-97190000D01*
X185000000Y-97190000D02*
X182380000Y-97190000D01*
X185000000Y-98080000D02*
X185000000Y-98840000D01*
X185000000Y-98840000D02*
X191000000Y-98840000D01*
X191000000Y-98840000D02*
X191000000Y-98080000D01*
X191000000Y-98080000D02*
X185000000Y-98080000D01*
X181950000Y-98080000D02*
X182380000Y-98080000D01*
X181950000Y-98840000D02*
X182380000Y-98840000D01*
X179410000Y-98080000D02*
X180130000Y-98080000D01*
X179410000Y-98840000D02*
X180130000Y-98840000D01*
X182380000Y-99730000D02*
X182380000Y-102270000D01*
X182380000Y-102270000D02*
X185000000Y-102270000D01*
X185000000Y-102270000D02*
X185000000Y-99730000D01*
X185000000Y-99730000D02*
X182380000Y-99730000D01*
X185000000Y-100620000D02*
X185000000Y-101380000D01*
X185000000Y-101380000D02*
X191000000Y-101380000D01*
X191000000Y-101380000D02*
X191000000Y-100620000D01*
X191000000Y-100620000D02*
X185000000Y-100620000D01*
X181950000Y-100620000D02*
X182380000Y-100620000D01*
X181950000Y-101380000D02*
X182380000Y-101380000D01*
X179410000Y-100620000D02*
X180130000Y-100620000D01*
X179410000Y-101380000D02*
X180130000Y-101380000D01*
X182380000Y-102270000D02*
X182380000Y-104810000D01*
X182380000Y-104810000D02*
X185000000Y-104810000D01*
X185000000Y-104810000D02*
X185000000Y-102270000D01*
X185000000Y-102270000D02*
X182380000Y-102270000D01*
X185000000Y-103160000D02*
X185000000Y-103920000D01*
X185000000Y-103920000D02*
X191000000Y-103920000D01*
X191000000Y-103920000D02*
X191000000Y-103160000D01*
X191000000Y-103160000D02*
X185000000Y-103160000D01*
X181950000Y-103160000D02*
X182380000Y-103160000D01*
X181950000Y-103920000D02*
X182380000Y-103920000D01*
X179410000Y-103160000D02*
X180130000Y-103160000D01*
X179410000Y-103920000D02*
X180130000Y-103920000D01*
X182380000Y-104810000D02*
X182380000Y-107350000D01*
X182380000Y-107350000D02*
X185000000Y-107350000D01*
X185000000Y-107350000D02*
X185000000Y-104810000D01*
X185000000Y-104810000D02*
X182380000Y-104810000D01*
X185000000Y-105700000D02*
X185000000Y-106460000D01*
X185000000Y-106460000D02*
X191000000Y-106460000D01*
X191000000Y-106460000D02*
X191000000Y-105700000D01*
X191000000Y-105700000D02*
X185000000Y-105700000D01*
X181950000Y-105700000D02*
X182380000Y-105700000D01*
X181950000Y-106460000D02*
X182380000Y-106460000D01*
X179410000Y-105700000D02*
X180130000Y-105700000D01*
X179410000Y-106460000D02*
X180130000Y-106460000D01*
X182380000Y-107350000D02*
X182380000Y-109890000D01*
X182380000Y-109890000D02*
X185000000Y-109890000D01*
X185000000Y-109890000D02*
X185000000Y-107350000D01*
X185000000Y-107350000D02*
X182380000Y-107350000D01*
X185000000Y-108240000D02*
X185000000Y-109000000D01*
X185000000Y-109000000D02*
X191000000Y-109000000D01*
X191000000Y-109000000D02*
X191000000Y-108240000D01*
X191000000Y-108240000D02*
X185000000Y-108240000D01*
X181950000Y-108240000D02*
X182380000Y-108240000D01*
X181950000Y-109000000D02*
X182380000Y-109000000D01*
X179410000Y-108240000D02*
X180130000Y-108240000D01*
X179410000Y-109000000D02*
X180130000Y-109000000D01*
X182380000Y-109890000D02*
X182380000Y-112490000D01*
X182380000Y-112490000D02*
X185000000Y-112490000D01*
X185000000Y-112490000D02*
X185000000Y-109890000D01*
X185000000Y-109890000D02*
X182380000Y-109890000D01*
X185000000Y-110780000D02*
X185000000Y-111540000D01*
X185000000Y-111540000D02*
X191000000Y-111540000D01*
X191000000Y-111540000D02*
X191000000Y-110780000D01*
X191000000Y-110780000D02*
X185000000Y-110780000D01*
X181950000Y-110780000D02*
X182380000Y-110780000D01*
X181950000Y-111540000D02*
X182380000Y-111540000D01*
X179410000Y-110780000D02*
X180130000Y-110780000D01*
X179410000Y-111540000D02*
X180130000Y-111540000D01*
X177230000Y-88300000D02*
X177230000Y-87030000D01*
X177230000Y-87030000D02*
X178500000Y-87030000D01*
X151570000Y-111630000D02*
X154170000Y-111630000D01*
X154170000Y-111630000D02*
X154170000Y-108970000D01*
X154170000Y-108970000D02*
X151570000Y-108970000D01*
X151570000Y-108970000D02*
X151570000Y-111630000D01*
X150300000Y-111630000D02*
X148970000Y-111630000D01*
X148970000Y-111630000D02*
X148970000Y-110300000D01*
D13*
X114936520Y-103369240D02*
X118936520Y-103369240D01*
X114936520Y-113069240D02*
X118936520Y-113069240D01*
X114386520Y-110219240D02*
X114386520Y-106219240D01*
X175438095Y-82252381D02*
X175438095Y-83061905D01*
X175485714Y-83157143D01*
X175533333Y-83204762D01*
X175628571Y-83252381D01*
X175819048Y-83252381D01*
X175914286Y-83204762D01*
X175961905Y-83157143D01*
X176009524Y-83061905D01*
X176009524Y-82252381D01*
X176390476Y-82252381D02*
X177009524Y-82252381D01*
X176676190Y-82633333D01*
X176819048Y-82633333D01*
X176914286Y-82680952D01*
X176961905Y-82728571D01*
X177009524Y-82823810D01*
X177009524Y-83061905D01*
X176961905Y-83157143D01*
X176914286Y-83204762D01*
X176819048Y-83252381D01*
X176533333Y-83252381D01*
X176438095Y-83204762D01*
X176390476Y-83157143D01*
X158548747Y-80407261D02*
X158548747Y-81121547D01*
X158501127Y-81264404D01*
X158405889Y-81359642D01*
X158263032Y-81407261D01*
X158167794Y-81407261D01*
X159453509Y-80740594D02*
X159453509Y-81407261D01*
X159215413Y-80359642D02*
X158977318Y-81073928D01*
X159596366Y-81073928D01*
X153727143Y-107296666D02*
X153774762Y-107344285D01*
X153822381Y-107487142D01*
X153822381Y-107582380D01*
X153774762Y-107725238D01*
X153679524Y-107820476D01*
X153584286Y-107868095D01*
X153393810Y-107915714D01*
X153250952Y-107915714D01*
X153060476Y-107868095D01*
X152965238Y-107820476D01*
X152870000Y-107725238D01*
X152822381Y-107582380D01*
X152822381Y-107487142D01*
X152870000Y-107344285D01*
X152917619Y-107296666D01*
X152822381Y-106963333D02*
X152822381Y-106344285D01*
X153203333Y-106677619D01*
X153203333Y-106534761D01*
X153250952Y-106439523D01*
X153298571Y-106391904D01*
X153393810Y-106344285D01*
X153631905Y-106344285D01*
X153727143Y-106391904D01*
X153774762Y-106439523D01*
X153822381Y-106534761D01*
X153822381Y-106820476D01*
X153774762Y-106915714D01*
X153727143Y-106963333D01*
X158807143Y-107466666D02*
X158854762Y-107514285D01*
X158902381Y-107657142D01*
X158902381Y-107752380D01*
X158854762Y-107895238D01*
X158759524Y-107990476D01*
X158664286Y-108038095D01*
X158473810Y-108085714D01*
X158330952Y-108085714D01*
X158140476Y-108038095D01*
X158045238Y-107990476D01*
X157950000Y-107895238D01*
X157902381Y-107752380D01*
X157902381Y-107657142D01*
X157950000Y-107514285D01*
X157997619Y-107466666D01*
X157902381Y-107133333D02*
X157902381Y-106466666D01*
X158902381Y-106895238D01*
X155307143Y-102866666D02*
X155354762Y-102914285D01*
X155402381Y-103057142D01*
X155402381Y-103152380D01*
X155354762Y-103295238D01*
X155259524Y-103390476D01*
X155164286Y-103438095D01*
X154973810Y-103485714D01*
X154830952Y-103485714D01*
X154640476Y-103438095D01*
X154545238Y-103390476D01*
X154450000Y-103295238D01*
X154402381Y-103152380D01*
X154402381Y-103057142D01*
X154450000Y-102914285D01*
X154497619Y-102866666D01*
X154830952Y-102295238D02*
X154783333Y-102390476D01*
X154735714Y-102438095D01*
X154640476Y-102485714D01*
X154592857Y-102485714D01*
X154497619Y-102438095D01*
X154450000Y-102390476D01*
X154402381Y-102295238D01*
X154402381Y-102104761D01*
X154450000Y-102009523D01*
X154497619Y-101961904D01*
X154592857Y-101914285D01*
X154640476Y-101914285D01*
X154735714Y-101961904D01*
X154783333Y-102009523D01*
X154830952Y-102104761D01*
X154830952Y-102295238D01*
X154878571Y-102390476D01*
X154926190Y-102438095D01*
X155021429Y-102485714D01*
X155211905Y-102485714D01*
X155307143Y-102438095D01*
X155354762Y-102390476D01*
X155402381Y-102295238D01*
X155402381Y-102104761D01*
X155354762Y-102009523D01*
X155307143Y-101961904D01*
X155211905Y-101914285D01*
X155021429Y-101914285D01*
X154926190Y-101961904D01*
X154878571Y-102009523D01*
X154830952Y-102104761D01*
X150338095Y-91752381D02*
X150338095Y-92561905D01*
X150385714Y-92657143D01*
X150433333Y-92704762D01*
X150528571Y-92752381D01*
X150719048Y-92752381D01*
X150814286Y-92704762D01*
X150861905Y-92657143D01*
X150909524Y-92561905D01*
X150909524Y-91752381D01*
X151909524Y-92752381D02*
X151338095Y-92752381D01*
X151623809Y-92752381D02*
X151623809Y-91752381D01*
X151528571Y-91895238D01*
X151433333Y-91990476D01*
X151338095Y-92038095D01*
X147066667Y-104852381D02*
X147066667Y-105566667D01*
X147019047Y-105709524D01*
X146923809Y-105804762D01*
X146780952Y-105852381D01*
X146685714Y-105852381D01*
X147447619Y-104852381D02*
X148066667Y-104852381D01*
X147733333Y-105233333D01*
X147876191Y-105233333D01*
X147971429Y-105280952D01*
X148019048Y-105328571D01*
X148066667Y-105423810D01*
X148066667Y-105661905D01*
X148019048Y-105757143D01*
X147971429Y-105804762D01*
X147876191Y-105852381D01*
X147590476Y-105852381D01*
X147495238Y-105804762D01*
X147447619Y-105757143D01*
X136466667Y-111452381D02*
X136466667Y-112166667D01*
X136419047Y-112309524D01*
X136323809Y-112404762D01*
X136180952Y-112452381D01*
X136085714Y-112452381D01*
X137466667Y-112452381D02*
X136895238Y-112452381D01*
X137180952Y-112452381D02*
X137180952Y-111452381D01*
X137085714Y-111595238D01*
X136990476Y-111690476D01*
X136895238Y-111738095D01*
X183654107Y-85146901D02*
X183654107Y-85861187D01*
X183606487Y-86004044D01*
X183511249Y-86099282D01*
X183368392Y-86146901D01*
X183273154Y-86146901D01*
X184606488Y-85146901D02*
X184130297Y-85146901D01*
X184082678Y-85623091D01*
X184130297Y-85575472D01*
X184225535Y-85527853D01*
X184463631Y-85527853D01*
X184558869Y-85575472D01*
X184606488Y-85623091D01*
X184654107Y-85718330D01*
X184654107Y-85956425D01*
X184606488Y-86051663D01*
X184558869Y-86099282D01*
X184463631Y-86146901D01*
X184225535Y-86146901D01*
X184130297Y-86099282D01*
X184082678Y-86051663D01*
X147422381Y-110633333D02*
X148136667Y-110633333D01*
X148279524Y-110680953D01*
X148374762Y-110776191D01*
X148422381Y-110919048D01*
X148422381Y-111014286D01*
X147422381Y-110252381D02*
X147422381Y-109585714D01*
X148422381Y-110014286D01*
X118974621Y-105148973D02*
X119688907Y-105148973D01*
X119831764Y-105196593D01*
X119927002Y-105291831D01*
X119974621Y-105434688D01*
X119974621Y-105529926D01*
X119069859Y-104720402D02*
X119022240Y-104672783D01*
X118974621Y-104577545D01*
X118974621Y-104339449D01*
X119022240Y-104244211D01*
X119069859Y-104196592D01*
X119165097Y-104148973D01*
X119260335Y-104148973D01*
X119403192Y-104196592D01*
X119974621Y-104768021D01*
X119974621Y-104148973D01*
M02*
