G04 #@! TF.FileFunction,Profile,NP*
%FSLAX46Y46*%
G04 Gerber Fmt 4.6, Leading zero omitted, Abs format (unit mm)*
G04 Created by KiCad (PCBNEW 4.0.5+dfsg1-4) date Sat Sep  9 17:34:41 2017*
%MOMM*%
%LPD*%
G01*
G04 APERTURE LIST*
%ADD10C,0.100000*%
G04 APERTURE END LIST*
D10*
X185000000Y-113080000D02*
X185000000Y-80000000D01*
X136750000Y-113080000D02*
X185000000Y-113080000D01*
X127890000Y-113080000D02*
X136740000Y-113080000D01*
X136820000Y-80000000D02*
X185000000Y-80000000D01*
X136820000Y-102080000D02*
X136820000Y-80000000D01*
X127890000Y-102080000D02*
X136820000Y-102080000D01*
X115067845Y-113079967D02*
G75*
G02X114367845Y-112379967I0J700000D01*
G01*
X114367845Y-104048811D02*
G75*
G02X115067845Y-103348811I700000J0D01*
G01*
X114367845Y-112379967D02*
X114367845Y-104048811D01*
X115067845Y-113079967D02*
X127883038Y-113079967D01*
X119257073Y-103348811D02*
X115067845Y-103348811D01*
X120548559Y-102067935D02*
X119257073Y-103348811D01*
X121999196Y-102067935D02*
X120548559Y-102067935D01*
X122004600Y-102724221D02*
X121999196Y-102067935D01*
X123317250Y-102724221D02*
X122004600Y-102724221D01*
X124101146Y-102078810D02*
X123317250Y-102724221D01*
X124101146Y-102078810D02*
X127883038Y-102078810D01*
X114984219Y-113079968D02*
G75*
G02X114371120Y-112380843I92061J699125D01*
G01*
X114371125Y-104050455D02*
X114371120Y-112380843D01*
X114371126Y-104050454D02*
G75*
G02X114984219Y-103348811I705154J2519D01*
G01*
X119257073Y-103348811D02*
X114984219Y-103348811D01*
X120548559Y-102067935D02*
X119257073Y-103348811D01*
X121999196Y-102067935D02*
X120548559Y-102067935D01*
X123317250Y-102724221D02*
X122373801Y-102724221D01*
X124101146Y-102078810D02*
X123317250Y-102724221D01*
X127883038Y-102078810D02*
X124101146Y-102078810D01*
X114984219Y-113079967D02*
X127883038Y-113079967D01*
M02*
