M48
;DRILL file {KiCad 4.0.5+dfsg1-4} date Mon Sep 11 20:39:20 2017
;FORMAT={-:-/ absolute / inch / decimal}
FMAT,2
INCH,TZ
T1C0.010
T2C0.016
T3C0.026
T4C0.039
%
G90
G05
M72
T1
X4.9372Y-4.3212
X4.9694Y-4.3212
X5.0018Y-4.3222
X5.034Y-4.3222
X5.0648Y-4.322
X5.097Y-4.322
X5.1294Y-4.323
X5.1616Y-4.323
X5.7283Y-3.9528
X5.8898Y-4.0276
X5.8898Y-4.0591
X5.8898Y-4.0906
X6.0433Y-3.9291
X6.0433Y-3.9606
X6.122Y-4.3701
X6.1535Y-4.3701
X6.185Y-4.3701
X6.2165Y-4.3701
X6.315Y-3.5
X6.3465Y-3.5
X6.378Y-3.5
X6.4094Y-3.5
X6.4528Y-3.8228
X6.4528Y-3.9016
X6.4843Y-3.8228
X6.4843Y-3.9016
X6.6575Y-3.9803
X6.6732Y-4.1024
X6.689Y-3.9803
X6.7047Y-4.1024
X6.7362Y-4.1024
X6.7677Y-4.1024
T2
X5.377Y-4.1314
X5.601Y-3.9238
X5.7342Y-4.0578
X5.76Y-4.005
X5.7678Y-4.0476
X5.7864Y-3.9744
X5.7894Y-4.2612
X5.8368Y-4.2114
X6.1496Y-3.7717
X6.1496Y-3.8228
X6.1496Y-3.8622
X6.1575Y-3.7244
X6.1693Y-3.6654
X6.1811Y-3.6142
X6.189Y-3.5591
X6.3622Y-3.626
X6.3622Y-3.7047
X6.3622Y-3.7835
X6.3622Y-3.8622
X6.3622Y-3.9409
X6.3622Y-4.0197
X6.3661Y-3.5472
T3
X5.6575Y-4.1614
X5.6575Y-4.2114
X5.6575Y-4.2614
X5.6575Y-4.3114
X5.6575Y-4.3614
X5.7075Y-4.1614
X5.7075Y-4.2114
X5.7075Y-4.2614
X5.7075Y-4.3114
X5.7075Y-4.3614
T4
X5.4488Y-3.3173
X5.4488Y-3.4173
X5.4961Y-3.6583
X5.4961Y-3.7583
X5.4961Y-3.8583
X5.4961Y-3.9583
X5.4961Y-4.0583
X5.4961Y-4.1583
X5.4961Y-4.2583
X5.4961Y-4.3583
X5.5488Y-3.3173
X5.5488Y-3.4173
X5.6488Y-3.3173
X5.6488Y-3.4173
X5.7488Y-3.3173
X5.7488Y-3.4173
X5.8488Y-3.3173
X5.8488Y-3.4173
X5.9173Y-4.3425
X5.9488Y-3.3173
X5.9488Y-3.4173
X6.0173Y-4.3425
X6.0488Y-3.3173
X6.0488Y-3.4173
X6.1488Y-3.3173
X6.1488Y-3.4173
X7.0276Y-3.4764
X7.0276Y-3.5764
X7.0276Y-3.6764
X7.0276Y-3.7764
X7.0276Y-3.8764
X7.0276Y-3.9764
X7.0276Y-4.0764
X7.0276Y-4.1764
X7.0276Y-4.2764
X7.0276Y-4.3764
X7.1276Y-3.4764
X7.1276Y-3.5764
X7.1276Y-3.6764
X7.1276Y-3.7764
X7.1276Y-3.8764
X7.1276Y-3.9764
X7.1276Y-4.0764
X7.1276Y-4.1764
X7.1276Y-4.2764
X7.1276Y-4.3764
T0
M30
